<svg width="220" height="220" viewBox="0 0 220 220" fill="none" xmlns="http://www.w3.org/2000/svg">
<path d="M110 0.625C139.008 0.625 166.828 12.1484 187.34 32.6602C207.852 53.172 219.375 80.9919 219.375 110C219.375 139.008 207.852 166.828 187.34 187.34C166.828 207.852 139.008 219.375 110 219.375C80.9919 219.375 53.172 207.852 32.6602 187.34C12.1484 166.828 0.625 139.008 0.625 110C0.625 80.9919 12.1484 53.172 32.6602 32.6602C53.172 12.1484 80.9919 0.625 110 0.625ZM110 47.5C108.016 47.4983 106.054 47.9104 104.238 48.7099C102.423 49.5094 100.794 50.6787 99.456 52.1432C98.118 53.6078 97.1001 55.3353 96.4673 57.2154C95.8346 59.0955 95.6009 61.087 95.7812 63.0625L101.484 125.656C101.705 127.761 102.698 129.709 104.27 131.125C105.843 132.541 107.884 133.324 110 133.324C112.116 133.324 114.157 132.541 115.73 131.125C117.302 129.709 118.295 127.761 118.516 125.656L124.203 63.0625C124.383 61.0883 124.15 59.0982 123.518 57.2191C122.886 55.34 121.87 53.6133 120.534 52.149C119.197 50.6847 117.57 49.515 115.757 48.7146C113.943 47.9141 111.982 47.5005 110 47.5ZM110 172.5C113.315 172.5 116.495 171.183 118.839 168.839C121.183 166.495 122.5 163.315 122.5 160C122.5 156.685 121.183 153.505 118.839 151.161C116.495 148.817 113.315 147.5 110 147.5C106.685 147.5 103.505 148.817 101.161 151.161C98.817 153.505 97.5 156.685 97.5 160C97.5 163.315 98.817 166.495 101.161 168.839C103.505 171.183 106.685 172.5 110 172.5Z" fill="black"/>
</svg>
