<svg width="139" height="139" viewBox="0 0 139 139" fill="none" xmlns="http://www.w3.org/2000/svg">
<path fill-rule="evenodd" clip-rule="evenodd" d="M11.5833 0C8.51124 0 5.56498 1.22038 3.39268 3.39268C1.22038 5.56498 0 8.51124 0 11.5833V127.417C0 130.489 1.22038 133.435 3.39268 135.607C5.56498 137.78 8.51124 139 11.5833 139H127.417C130.489 139 133.435 137.78 135.607 135.607C137.78 133.435 139 130.489 139 127.417V11.5833C139 8.51124 137.78 5.56498 135.607 3.39268C133.435 1.22038 130.489 0 127.417 0H11.5833ZM100.389 38.6111H88.8056V100.389H100.389V38.6111ZM108.111 50.1944H119.694V65.6389H123.556V73.3611H119.694V88.8056H108.111V50.1944ZM38.6111 100.389H50.1944V38.6111H38.6111V100.389ZM30.8889 88.8056H19.3056V73.3611H15.4444V65.6389H19.3056V50.1944H30.8889V88.8056ZM57.9167 73.3611H81.0833V65.6389H57.9167V73.3611Z" fill="#737373"/>
</svg>
