<svg width="300" height="266" viewBox="0 0 300 266" fill="none" xmlns="http://www.w3.org/2000/svg">
<path d="M286.268 145.311C286.268 145.311 292.839 145.681 290.348 160.233C287.857 174.784 285.359 182.323 285.359 182.323C285.359 182.323 285.126 185.566 287.721 185.274C290.316 184.982 295.434 182.42 297.452 185.08C299.47 187.74 298.211 191.47 294.435 195.46C290.66 199.45 282.699 208.519 281.986 209.343C281.272 210.167 280.831 211.776 282.635 211.847C284.438 211.919 296.959 209.401 297.796 215.422C298.633 221.442 286.281 230.849 284.951 231.9C283.621 232.951 283.459 233.71 283.841 234.495C284.224 235.28 288.383 234.047 291.944 233.477C295.506 232.906 299.801 232.88 299.995 236.389C300.19 239.899 294.066 249.306 274.636 257.513L265.384 260.757L257.839 254.451C242.516 239.958 240.077 229 241.484 225.782C242.892 222.565 246.882 224.083 250.048 225.873C253.214 227.664 256.646 230.272 257.281 229.662C257.917 229.052 258.027 228.293 257.152 226.84C256.276 225.387 247.998 212.243 250.891 206.904C253.785 201.565 264.632 208.305 266.344 208.85C268.057 209.395 268.2 207.734 267.824 206.735C267.447 205.736 263.166 194.409 261.025 189.368C258.884 184.327 258.903 180.422 261.836 178.579C264.664 176.795 268.576 180.973 270.918 182.167C273.26 183.361 274.162 180.221 274.162 180.221C274.162 180.221 274.48 172.241 277.237 157.761C279.994 143.281 286.423 145.311 286.423 145.311" fill="#EBEBEB"/>
<path d="M265.592 263.099C267.577 252.453 270.782 233.484 273.61 217.206C276.439 200.929 279.021 186.209 280.948 175.563C281.914 170.243 282.699 165.942 283.244 162.951C283.51 161.472 283.724 160.317 283.893 159.52C283.958 159.137 284.01 158.838 284.049 158.631C284.088 158.423 284.088 158.319 284.088 158.319C284.088 158.319 284.055 158.423 284.016 158.624C283.977 158.825 283.913 159.13 283.835 159.513C283.672 160.305 283.445 161.459 283.154 162.932C282.57 165.897 281.752 170.204 280.766 175.524C278.781 186.164 276.173 200.884 273.338 217.155C270.503 233.425 267.337 252.408 265.41 263.06" fill="#E0E0E0"/>
<path d="M290.439 188.921C290.228 189.028 290.028 189.156 289.843 189.304C289.473 189.57 288.947 189.952 288.298 190.458C287.001 191.445 285.256 192.859 283.355 194.448L278.496 198.548L277.023 199.781C276.83 199.92 276.652 200.079 276.491 200.255C276.704 200.147 276.906 200.018 277.095 199.872C277.464 199.612 277.99 199.223 278.632 198.717C279.93 197.711 281.649 196.278 283.55 194.682L288.428 190.627L289.914 189.401C290.108 189.262 290.284 189.101 290.439 188.921Z" fill="#E0E0E0"/>
<path d="M275.667 199.852C275.738 199.8 272.981 196.07 269.523 191.515C266.065 186.961 263.198 183.302 263.133 183.354C263.068 183.406 265.819 187.143 269.283 191.697C272.747 196.251 275.628 199.904 275.667 199.852Z" fill="#E0E0E0"/>
<path d="M272.443 225.037C272.272 224.868 272.085 224.716 271.885 224.582L270.308 223.408C268.972 222.422 267.143 221.047 265.177 219.457C263.211 217.868 261.472 216.369 260.22 215.279L258.748 213.982C258.579 213.807 258.387 213.657 258.177 213.534C258.322 213.726 258.485 213.904 258.663 214.066C258.994 214.397 259.474 214.871 260.078 215.435C261.291 216.57 263.01 218.101 264.982 219.691C266.954 221.28 268.816 222.636 270.172 223.583C270.86 224.057 271.418 224.427 271.814 224.68C272.008 224.823 272.22 224.943 272.443 225.037Z" fill="#E0E0E0"/>
<path d="M287.955 218.089C287.731 218.135 287.513 218.206 287.306 218.303L285.619 218.952C284.199 219.536 282.252 220.359 280.099 221.287C277.945 222.215 276.011 223.071 274.617 223.707L273.034 224.492C272.827 224.579 272.629 224.685 272.443 224.81C272.668 224.769 272.886 224.699 273.092 224.602L274.779 223.954C276.2 223.37 278.152 222.546 280.3 221.618C282.447 220.69 284.387 219.834 285.782 219.198L287.43 218.433C287.618 218.34 287.794 218.224 287.955 218.089Z" fill="#E0E0E0"/>
<path d="M287.954 240.685C287.675 240.749 287.403 240.843 287.143 240.964L284.977 241.82C283.154 242.559 280.643 243.597 277.879 244.759C275.116 245.92 272.618 246.99 270.814 247.775L268.686 248.723C268.42 248.83 268.164 248.96 267.921 249.112C268.199 249.043 268.47 248.95 268.732 248.833L270.899 247.977C272.722 247.237 275.232 246.199 277.996 245.038C280.76 243.876 283.257 242.806 285.061 242.021L287.189 241.074C287.455 240.967 287.711 240.836 287.954 240.685Z" fill="#E0E0E0"/>
<path d="M268.356 248.775C268.142 248.557 267.909 248.357 267.662 248.178L265.716 246.621C264.074 245.323 261.823 243.481 259.371 241.392C256.919 239.303 254.758 237.369 253.208 235.955L251.359 234.275C251.143 234.058 250.908 233.861 250.658 233.685C250.857 233.918 251.074 234.135 251.307 234.333C251.716 234.755 252.325 235.358 253.085 236.085C254.603 237.545 256.75 239.517 259.196 241.599C261.642 243.682 263.932 245.492 265.612 246.789C266.455 247.438 267.136 247.931 267.623 248.269C267.853 248.457 268.098 248.626 268.356 248.775Z" fill="#E0E0E0"/>
<path d="M56.4481 54.7135C55.7409 51.2232 57.9402 47.9081 61.7548 47.1361C63.423 46.7989 65.1567 47.1381 66.5747 48.0792C67.9927 49.0203 68.9788 50.4861 69.316 52.1542C69.6533 53.8223 69.314 55.5561 68.373 56.9741C67.4319 58.3921 65.9661 59.3782 64.298 59.7154C63.4534 59.9156 62.5773 59.9442 61.7215 59.7997C60.8657 59.6552 60.0475 59.3404 59.3156 58.874C58.5836 58.4076 57.9527 57.799 57.4601 57.0844C56.9676 56.3698 56.6234 55.5636 56.4481 54.7135ZM46.7168 3.56598L58.7252 1.13965L64.3693 39.5198L56.3508 41.1417L46.7168 3.56598Z" fill="#EBEBEB"/>
<path d="M67.1068 59.8323C65.816 60.6026 64.3386 61.0038 62.8354 60.9924C61.3323 60.981 59.8611 60.5572 58.5822 59.7674C57.7467 59.2202 57.0292 58.5111 56.4721 57.6822C55.915 56.8532 55.5295 55.921 55.3385 54.9407C54.4951 50.7432 57.155 46.9091 61.5405 46.0203C62.5173 45.7888 63.5309 45.7574 64.5201 45.9281C65.5093 46.0989 66.4537 46.4682 67.2964 47.0138C68.139 47.5594 68.8624 48.2699 69.423 49.1027C69.9836 49.9354 70.3697 50.8731 70.5582 51.8591C70.7624 52.8313 70.773 53.8342 70.5893 54.8104C70.4056 55.7867 70.0313 56.7172 69.4877 57.5486C68.8774 58.4804 68.0632 59.2613 67.1068 59.8323ZM59.9705 49.0176C59.0405 49.5569 58.3042 50.3757 57.8663 51.3575C57.4284 52.3393 57.3111 53.4342 57.5312 54.4865C57.6632 55.1711 57.9316 55.822 58.3206 56.4005C58.7096 56.979 59.2112 57.4732 59.7954 57.8536C61.0559 58.6521 62.5809 58.9202 64.0382 58.5996C64.7449 58.4672 65.4183 58.196 66.0196 57.8018C66.6209 57.4077 67.1382 56.8983 67.5415 56.303C68.3042 55.1249 68.5679 53.6922 68.2746 52.3197C68.1417 51.6295 67.87 50.9735 67.4759 50.3914C67.0819 49.8093 66.5737 49.3134 65.9822 48.9336C65.3907 48.5539 64.7283 48.2982 64.035 48.1822C63.3417 48.0661 62.6321 48.0921 61.9492 48.2585C61.2622 48.3994 60.604 48.6561 60.003 49.0176H59.9705ZM64.914 40.493C64.803 40.5631 64.6798 40.6115 64.5507 40.6357L56.5127 42.2576C56.2316 42.3077 55.942 42.25 55.7016 42.0961C55.4611 41.9422 55.2874 41.7034 55.2152 41.4272L45.6007 3.8515C45.5628 3.70178 45.5554 3.54597 45.5788 3.3933C45.6022 3.24064 45.6559 3.09422 45.7369 2.96271C45.8188 2.8314 45.9266 2.7182 46.0538 2.63006C46.181 2.54193 46.3248 2.48072 46.4765 2.4502L58.4849 0.0238723C58.637 -0.00782763 58.7941 -0.00795833 58.9462 0.0234887C59.0984 0.0549357 59.2425 0.117291 59.3696 0.206692C59.4967 0.296094 59.6041 0.410638 59.6852 0.543232C59.7662 0.675825 59.8192 0.823644 59.8408 0.977536L65.4849 39.3706C65.5142 39.5898 65.4789 39.8128 65.3832 40.0122C65.2876 40.2116 65.1358 40.3787 64.9465 40.493H64.914ZM57.129 39.8442L63.0456 38.6505L57.7323 2.52805L48.0789 4.47431L57.129 39.8442Z" fill="#F27370"/>
<path d="M80.0818 50.3348C80.2618 49.9029 80.5273 49.5118 80.8625 49.1853C81.1977 48.8588 81.5955 48.6036 82.032 48.4351C82.4685 48.2665 82.9346 48.1882 83.4023 48.2047C83.8699 48.2212 84.3293 48.3323 84.7528 48.5313C85.1858 48.6925 85.5815 48.9399 85.9159 49.2585C86.2504 49.5772 86.5167 49.9604 86.6987 50.385C86.8807 50.8096 86.9745 51.2668 86.9746 51.7287C86.9747 52.1907 86.8809 52.6479 86.6991 53.0725C86.5276 53.5043 86.2707 53.8971 85.9438 54.2272C85.6168 54.5573 85.2266 54.818 84.7965 54.9937C84.3664 55.1694 83.9052 55.2564 83.4407 55.2496C82.9761 55.2427 82.5177 55.1422 82.093 54.9539C81.6526 54.7893 81.2499 54.5378 80.9089 54.2143C80.5678 53.8908 80.2953 53.502 80.1076 53.0709C79.92 52.6399 79.821 52.1756 79.8166 51.7055C79.8121 51.2354 79.9023 50.7693 80.0818 50.3348ZM91.1106 24.3848L97.2478 26.9149L88.2237 45.8584L84.1171 44.1652L91.1106 24.3848Z" fill="#EBEBEB"/>
<path d="M83.3325 55.8557C82.828 55.8334 82.3315 55.7214 81.8663 55.5249C80.8161 55.1051 79.9728 54.2897 79.5178 53.2542C79.1997 52.4952 79.1182 51.6578 79.2839 50.8517C79.4496 50.0455 79.8548 49.3082 80.4464 48.7361C81.0381 48.1641 81.7887 47.784 82.6 47.6456C83.4113 47.5072 84.2454 47.6169 84.9933 47.9604C85.5029 48.1501 85.9687 48.4413 86.3625 48.8164C86.7562 49.1916 87.0696 49.6427 87.2837 50.1426C87.4979 50.6424 87.6083 51.1806 87.6082 51.7244C87.6081 52.2682 87.4976 52.8063 87.2834 53.3061C86.9731 54.0901 86.4253 54.7574 85.7169 55.2146C85.0084 55.6718 84.1747 55.896 83.3325 55.8557ZM83.3974 48.8427C82.8168 48.8067 82.2397 48.9539 81.7473 49.2635C81.2549 49.5731 80.8722 50.0296 80.6532 50.5684C80.5056 50.9162 80.4295 51.2902 80.4295 51.668C80.4295 52.0459 80.5056 52.4198 80.6532 52.7677C80.9811 53.507 81.5871 54.0874 82.3399 54.3831C82.6994 54.534 83.0853 54.6117 83.4752 54.6117C83.8651 54.6117 84.2511 54.534 84.6105 54.3831C85.3079 54.0821 85.8582 53.5178 86.1416 52.8131C86.2896 52.4622 86.3649 52.085 86.363 51.7042C86.361 51.3234 86.2818 50.947 86.1302 50.5976C85.9786 50.2483 85.7577 49.9334 85.4809 49.6719C85.2041 49.4104 84.8771 49.2078 84.5197 49.0763C84.1615 48.9353 83.782 48.8563 83.3974 48.8427ZM88.1981 46.5007C88.1267 46.4987 88.0563 46.4833 87.9905 46.4553L83.8839 44.7621C83.7424 44.6955 83.6297 44.5801 83.5665 44.4371C83.5033 44.294 83.494 44.133 83.5401 43.9836L90.5466 24.1707C90.6089 24.011 90.7319 23.8825 90.8888 23.8132C91.0456 23.7439 91.2234 23.7395 91.3835 23.8009L97.5207 26.331C97.6768 26.3983 97.8002 26.5241 97.8645 26.6814C97.9276 26.8374 97.9276 27.0119 97.8645 27.1679L88.7885 46.1504C88.7376 46.2625 88.654 46.3566 88.5486 46.4203C88.4432 46.484 88.321 46.5143 88.1981 46.5072V46.5007ZM84.896 43.8408L87.9192 45.0929L96.4308 27.2328L91.4938 25.1957L84.896 43.8408Z" fill="#F27370"/>
<path d="M28.7526 69.4727H255.219C258.302 69.4727 261.259 70.6975 263.439 72.8777C265.619 75.058 266.844 78.015 266.844 81.0983V264.825H17.127V81.0918C17.1287 78.0096 18.3543 75.0543 20.5343 72.8754C22.7144 70.6966 25.6704 69.4727 28.7526 69.4727Z" fill="#FAFAFA"/>
<path d="M231.091 218.231C231.091 218.328 190.804 218.406 141.116 218.406C91.4281 218.406 51.1602 218.328 51.1602 218.231C51.1602 218.134 91.4346 218.062 141.142 218.062C190.849 218.062 231.091 218.14 231.091 218.231Z" fill="#263238"/>
<path d="M214.561 229.454C214.561 229.545 183.771 229.623 145.793 229.623C107.815 229.623 77.0254 229.545 77.0254 229.454C77.0254 229.364 107.809 229.279 145.793 229.279C183.777 229.279 214.561 229.338 214.561 229.454Z" fill="#263238"/>
<path d="M266.838 69.4727H17.127V145.227H266.838V69.4727Z" fill="#F27370"/>
<path d="M267.194 265.136H16.7764V69.1484H267.194V265.136ZM17.4251 264.487H266.546V69.7972H17.4251V264.487Z" fill="#263238"/>
<path d="M120.414 169.445L114.803 186.579H110.547L106.778 174.96L102.885 186.559H98.6487L93.0176 169.426H97.1307L101.023 181.473L105.065 169.426H108.737L112.629 181.57L116.619 169.426L120.414 169.445Z" fill="#263238"/>
<path d="M133.026 179.066V186.579H129.452V184.944C128.738 186.137 127.369 186.78 125.436 186.78C122.348 186.78 120.512 185.061 120.512 182.79C120.512 180.519 122.153 178.846 126.169 178.846H129.205C129.205 177.204 128.225 176.251 126.169 176.251C124.805 176.24 123.474 176.67 122.374 177.477L121.005 174.804C122.698 173.724 124.674 173.17 126.681 173.214C130.697 173.214 133.026 175.076 133.026 179.066ZM129.205 182.42V181.071H126.61C124.826 181.071 124.261 181.719 124.261 182.615C124.261 183.51 125.066 184.204 126.415 184.204C127.009 184.24 127.599 184.086 128.1 183.766C128.601 183.445 128.988 182.974 129.205 182.42Z" fill="#263238"/>
<path d="M144.652 173.215V176.738C144.334 176.738 144.087 176.692 143.795 176.692C141.693 176.692 140.299 177.84 140.299 180.364V186.579H136.478V173.409H140.124V175.148C141.058 173.877 142.634 173.215 144.652 173.215Z" fill="#263238"/>
<path d="M160.397 179.041V186.579H156.576V179.631C156.576 177.497 155.596 176.524 153.909 176.524C152.073 176.524 150.75 177.646 150.75 180.072V186.56H146.929V173.39H150.581V174.96C151.144 174.381 151.822 173.926 152.572 173.627C153.323 173.327 154.127 173.189 154.934 173.221C158.048 173.215 160.397 175.025 160.397 179.041Z" fill="#263238"/>
<path d="M163.394 169.445C163.4 169.146 163.469 168.851 163.594 168.579C163.719 168.307 163.899 168.064 164.122 167.865C164.346 167.665 164.607 167.514 164.892 167.42C165.176 167.325 165.476 167.291 165.774 167.317C167.189 167.317 168.149 168.2 168.149 169.374C168.105 169.969 167.84 170.525 167.406 170.934C166.972 171.344 166.4 171.575 165.804 171.584C165.208 171.593 164.629 171.379 164.183 170.983C163.737 170.587 163.456 170.038 163.394 169.445ZM163.861 173.409H167.682V186.579H163.848L163.861 173.409Z" fill="#263238"/>
<path d="M184.686 179.041V186.579H180.865V179.631C180.865 177.496 179.885 176.523 178.198 176.523C176.362 176.523 175.039 177.646 175.039 180.072V186.56H171.218V173.39H174.864V174.96C175.428 174.381 176.108 173.927 176.859 173.628C177.61 173.328 178.415 173.19 179.223 173.221C182.331 173.215 184.686 175.025 184.686 179.041Z" fill="#263238"/>
<path d="M201.871 173.409V184.379C201.871 189.271 199.224 191.516 194.475 191.516C191.978 191.516 189.558 190.867 187.988 189.699L189.506 186.961C190.86 187.937 192.488 188.46 194.157 188.454C196.85 188.454 198.05 187.227 198.05 184.853V184.289C197.514 184.842 196.865 185.275 196.148 185.558C195.431 185.841 194.662 185.968 193.891 185.93C190.239 185.93 187.307 183.413 187.307 179.566C187.307 175.719 190.239 173.201 193.891 173.201C194.714 173.153 195.537 173.299 196.293 173.627C197.049 173.955 197.718 174.456 198.245 175.089V173.396L201.871 173.409ZM198.102 179.579C198.102 177.632 196.655 176.335 194.651 176.335C192.646 176.335 191.173 177.632 191.173 179.579C191.173 181.525 192.639 182.822 194.651 182.822C196.662 182.822 198.102 181.512 198.102 179.579Z" fill="#263238"/>
<path d="M204.862 184.548C204.906 183.956 205.173 183.401 205.609 182.997C206.044 182.593 206.616 182.368 207.211 182.368C207.805 182.368 208.377 182.593 208.813 182.997C209.249 183.401 209.515 183.956 209.559 184.548C209.559 185.171 209.312 185.768 208.871 186.209C208.431 186.649 207.834 186.897 207.211 186.897C206.588 186.897 205.991 186.649 205.55 186.209C205.11 185.768 204.862 185.171 204.862 184.548ZM204.914 169.445H209.455L208.696 180.63H205.693L204.914 169.445Z" fill="#263238"/>
<path d="M115.977 202.207H112.272L111.494 203.959H110.761L113.803 197.303H114.491L117.534 203.959H116.794L115.977 202.207ZM115.717 201.636L114.121 198.062L112.525 201.636H115.717Z" fill="#263238"/>
<path d="M121.063 203.654C120.762 203.891 120.388 204.015 120.005 204.005C119.808 204.031 119.607 204.012 119.418 203.949C119.23 203.885 119.058 203.779 118.917 203.638C118.776 203.498 118.669 203.327 118.604 203.138C118.54 202.95 118.52 202.749 118.546 202.552V199.528H117.65V198.964H118.546V197.874H119.194V198.964H120.712V199.535H119.194V202.519C119.177 202.639 119.188 202.761 119.224 202.876C119.261 202.991 119.323 203.096 119.406 203.184C119.489 203.272 119.59 203.34 119.703 203.383C119.816 203.427 119.937 203.444 120.057 203.434C120.327 203.44 120.59 203.347 120.797 203.174L121.063 203.654Z" fill="#263238"/>
<path d="M124.787 203.654C124.489 203.891 124.116 204.015 123.736 204.005C123.538 204.032 123.336 204.014 123.147 203.951C122.957 203.888 122.785 203.782 122.643 203.641C122.501 203.501 122.393 203.329 122.329 203.14C122.264 202.951 122.244 202.75 122.27 202.552V199.528H121.381V198.964H122.27V197.874H122.918V198.964H124.469V199.535H122.944V202.519C122.927 202.639 122.937 202.762 122.974 202.877C123.011 202.993 123.074 203.099 123.158 203.187C123.241 203.275 123.344 203.343 123.457 203.386C123.571 203.428 123.693 203.445 123.814 203.434C124.083 203.438 124.346 203.346 124.553 203.174L124.787 203.654Z" fill="#263238"/>
<path d="M130.191 201.668H126.007C126.035 202.157 126.256 202.614 126.621 202.94C126.985 203.266 127.464 203.434 127.953 203.407C128.24 203.419 128.526 203.367 128.791 203.254C129.056 203.142 129.292 202.973 129.484 202.758L129.867 203.193C129.506 203.563 129.045 203.82 128.54 203.932C128.036 204.043 127.509 204.004 127.027 203.82C126.544 203.636 126.125 203.314 125.823 202.895C125.521 202.476 125.348 201.977 125.325 201.461C125.309 201.131 125.36 200.801 125.475 200.492C125.591 200.182 125.769 199.9 125.998 199.662C126.228 199.424 126.503 199.236 126.808 199.109C127.113 198.982 127.441 198.919 127.771 198.924C128.101 198.918 128.428 198.98 128.732 199.107C129.036 199.234 129.311 199.423 129.538 199.661C129.765 199.9 129.941 200.183 130.053 200.493C130.166 200.802 130.213 201.132 130.191 201.461C130.198 201.513 130.191 201.591 130.191 201.668ZM126.007 201.162H129.555C129.528 200.71 129.329 200.286 128.999 199.975C128.67 199.665 128.234 199.492 127.781 199.492C127.328 199.492 126.892 199.665 126.563 199.975C126.233 200.286 126.034 200.71 126.007 201.162Z" fill="#263238"/>
<path d="M136.179 201.059V203.958H135.53V201.123C135.561 200.914 135.545 200.701 135.481 200.5C135.418 200.298 135.31 200.113 135.165 199.96C135.02 199.806 134.842 199.687 134.645 199.612C134.447 199.537 134.235 199.508 134.025 199.527C133.786 199.51 133.546 199.545 133.323 199.63C133.099 199.716 132.897 199.849 132.73 200.021C132.564 200.193 132.437 200.4 132.359 200.626C132.282 200.852 132.254 201.093 132.28 201.331V203.958H131.631V198.963H132.28V199.884C132.482 199.569 132.765 199.314 133.099 199.146C133.434 198.977 133.807 198.9 134.18 198.924C134.457 198.915 134.732 198.966 134.988 199.072C135.243 199.178 135.473 199.337 135.662 199.539C135.851 199.741 135.995 199.981 136.084 200.243C136.173 200.505 136.205 200.783 136.179 201.059Z" fill="#263238"/>
<path d="M140.649 203.654C140.348 203.891 139.974 204.015 139.591 204.005C139.393 204.032 139.192 204.014 139.002 203.951C138.813 203.888 138.64 203.782 138.498 203.641C138.356 203.501 138.249 203.329 138.184 203.14C138.119 202.951 138.099 202.75 138.125 202.552V199.528H137.236V198.964H138.125V197.874H138.774V198.964H140.298V199.535H138.774V202.519C138.757 202.639 138.767 202.762 138.804 202.877C138.841 202.993 138.904 203.099 138.987 203.187C139.071 203.275 139.173 203.343 139.287 203.386C139.4 203.428 139.522 203.445 139.643 203.434C139.913 203.438 140.175 203.346 140.383 203.174L140.649 203.654Z" fill="#263238"/>
<path d="M141.719 197.38C141.733 197.258 141.791 197.146 141.883 197.064C141.974 196.983 142.092 196.938 142.215 196.938C142.338 196.938 142.456 196.983 142.548 197.064C142.639 197.146 142.697 197.258 142.711 197.38C142.697 197.502 142.639 197.615 142.548 197.696C142.456 197.778 142.338 197.823 142.215 197.823C142.092 197.823 141.974 197.778 141.883 197.696C141.791 197.615 141.733 197.502 141.719 197.38ZM141.874 198.957H142.523V203.959H141.874V198.957Z" fill="#263238"/>
<path d="M143.931 201.455C143.933 200.952 144.083 200.461 144.363 200.044C144.643 199.627 145.04 199.302 145.504 199.11C145.969 198.919 146.48 198.869 146.972 198.967C147.465 199.065 147.918 199.308 148.273 199.663C148.628 200.018 148.87 200.471 148.968 200.963C149.067 201.456 149.017 201.967 148.825 202.431C148.634 202.896 148.309 203.293 147.891 203.573C147.474 203.853 146.983 204.003 146.481 204.004C146.143 204.017 145.806 203.96 145.49 203.836C145.175 203.712 144.889 203.525 144.65 203.286C144.411 203.046 144.223 202.76 144.1 202.445C143.976 202.13 143.919 201.793 143.931 201.455ZM148.33 201.455C148.312 201.092 148.188 200.742 147.974 200.449C147.759 200.156 147.463 199.932 147.122 199.806C146.782 199.68 146.412 199.656 146.058 199.738C145.704 199.82 145.382 200.004 145.132 200.267C144.881 200.531 144.714 200.862 144.65 201.22C144.586 201.577 144.629 201.946 144.773 202.279C144.916 202.613 145.155 202.897 145.459 203.096C145.762 203.296 146.118 203.402 146.481 203.401C146.733 203.405 146.983 203.357 147.216 203.259C147.448 203.161 147.657 203.016 147.831 202.833C148.004 202.65 148.137 202.433 148.222 202.196C148.307 201.958 148.342 201.706 148.323 201.455H148.33Z" fill="#263238"/>
<path d="M154.993 201.059V203.958H154.344V201.123C154.376 200.914 154.359 200.701 154.296 200.5C154.233 200.298 154.125 200.113 153.98 199.96C153.835 199.806 153.657 199.687 153.459 199.612C153.262 199.537 153.05 199.508 152.839 199.527C152.6 199.51 152.361 199.545 152.137 199.63C151.914 199.716 151.711 199.849 151.545 200.021C151.378 200.193 151.252 200.4 151.174 200.626C151.096 200.852 151.069 201.093 151.094 201.331V203.958H150.445V198.963H151.094V199.884C151.297 199.569 151.58 199.314 151.914 199.146C152.248 198.977 152.621 198.9 152.995 198.924C153.271 198.915 153.547 198.966 153.802 199.072C154.058 199.178 154.288 199.337 154.477 199.539C154.666 199.741 154.81 199.981 154.899 200.243C154.988 200.505 155.02 200.783 154.993 201.059Z" fill="#263238"/>
<path d="M164.38 201.455C164.398 201.789 164.347 202.123 164.229 202.436C164.111 202.75 163.93 203.035 163.697 203.275C163.463 203.514 163.183 203.703 162.872 203.828C162.562 203.954 162.23 204.014 161.895 204.005C161.52 204.017 161.149 203.933 160.816 203.76C160.483 203.587 160.2 203.332 159.994 203.018V205.802H159.346V198.964H159.994V199.95C160.199 199.622 160.487 199.355 160.829 199.175C161.171 198.995 161.555 198.908 161.941 198.925C162.27 198.921 162.596 198.984 162.9 199.111C163.204 199.238 163.478 199.426 163.707 199.663C163.935 199.9 164.113 200.181 164.229 200.489C164.344 200.798 164.396 201.126 164.38 201.455ZM163.731 201.455C163.715 201.091 163.592 200.739 163.377 200.444C163.163 200.15 162.867 199.924 162.525 199.796C162.184 199.668 161.813 199.643 161.457 199.724C161.102 199.805 160.778 199.989 160.526 200.252C160.274 200.516 160.105 200.847 160.039 201.206C159.974 201.565 160.016 201.935 160.159 202.27C160.302 202.605 160.54 202.891 160.844 203.092C161.148 203.293 161.505 203.401 161.869 203.401C162.12 203.401 162.367 203.349 162.597 203.25C162.827 203.15 163.034 203.005 163.206 202.823C163.378 202.641 163.511 202.426 163.597 202.19C163.682 201.955 163.719 201.705 163.705 201.455H163.731Z" fill="#263238"/>
<path d="M165.762 196.907H166.41V203.959H165.762V196.907Z" fill="#263238"/>
<path d="M172.671 201.669H168.493C168.507 201.911 168.568 202.148 168.673 202.366C168.778 202.585 168.925 202.781 169.106 202.942C169.287 203.104 169.497 203.228 169.726 203.308C169.955 203.388 170.198 203.421 170.44 203.407C170.727 203.416 171.012 203.363 171.276 203.251C171.541 203.139 171.778 202.971 171.971 202.759L172.347 203.193C172.104 203.466 171.803 203.681 171.467 203.823C171.13 203.964 170.766 204.028 170.401 204.011C170.06 204.027 169.719 203.972 169.4 203.851C169.08 203.729 168.79 203.542 168.546 203.303C168.302 203.064 168.111 202.776 167.983 202.459C167.856 202.142 167.796 201.803 167.806 201.461C167.806 200.816 168.062 200.197 168.518 199.741C168.975 199.285 169.593 199.028 170.239 199.028C170.884 199.028 171.503 199.285 171.959 199.741C172.415 200.197 172.671 200.816 172.671 201.461C172.684 201.513 172.671 201.591 172.671 201.669ZM168.493 201.163H172.036C171.998 200.719 171.795 200.306 171.467 200.005C171.139 199.704 170.71 199.537 170.265 199.537C169.819 199.537 169.39 199.704 169.062 200.005C168.735 200.306 168.531 200.719 168.493 201.163Z" fill="#263238"/>
<path d="M177.667 200.858V203.959H177.018V203.174C176.833 203.454 176.575 203.68 176.273 203.826C175.97 203.972 175.633 204.034 175.299 204.004C174.17 204.004 173.476 203.414 173.476 202.551C173.476 201.688 173.969 201.137 175.422 201.137H177.018V200.832C177.018 199.975 176.531 199.534 175.603 199.534C174.995 199.525 174.403 199.735 173.936 200.124L173.631 199.618C174.215 199.173 174.935 198.944 175.668 198.97C176.959 198.918 177.667 199.567 177.667 200.858ZM177.018 202.453V201.636H175.448C174.481 201.636 174.15 202.019 174.15 202.531C174.15 203.044 174.617 203.472 175.415 203.472C175.756 203.495 176.095 203.409 176.384 203.226C176.672 203.042 176.894 202.772 177.018 202.453Z" fill="#263238"/>
<path d="M178.834 203.388L179.139 202.856C179.658 203.225 180.28 203.42 180.916 203.414C181.864 203.414 182.253 203.09 182.253 202.597C182.253 201.299 179.009 202.324 179.009 200.346C179.009 199.528 179.71 198.918 180.955 198.918C181.577 198.909 182.19 199.071 182.726 199.385L182.435 199.924C181.995 199.637 181.48 199.49 180.955 199.502C180.054 199.502 179.658 199.853 179.658 200.326C179.658 201.676 182.902 200.657 182.902 202.577C182.902 203.44 182.143 204.005 180.839 204.005C180.122 204.019 179.419 203.803 178.834 203.388Z" fill="#263238"/>
<path d="M188.527 201.668H184.349C184.377 202.157 184.598 202.614 184.963 202.94C185.328 203.266 185.807 203.434 186.295 203.407C186.582 203.416 186.867 203.363 187.132 203.251C187.396 203.139 187.633 202.971 187.826 202.758L188.209 203.193C187.848 203.563 187.387 203.82 186.883 203.932C186.378 204.043 185.852 204.004 185.369 203.82C184.886 203.636 184.467 203.314 184.165 202.895C183.863 202.476 183.69 201.977 183.668 201.461C183.65 201.131 183.7 200.802 183.815 200.492C183.93 200.183 184.107 199.9 184.336 199.663C184.565 199.425 184.84 199.236 185.145 199.109C185.449 198.982 185.777 198.919 186.107 198.924C186.437 198.918 186.764 198.981 187.068 199.107C187.373 199.234 187.648 199.423 187.876 199.661C188.104 199.899 188.28 200.182 188.393 200.492C188.506 200.802 188.554 201.132 188.533 201.461C188.54 201.513 188.527 201.591 188.527 201.668ZM184.349 201.162H187.891C187.853 200.719 187.65 200.306 187.322 200.005C186.994 199.704 186.565 199.537 186.12 199.537C185.675 199.537 185.246 199.704 184.918 200.005C184.59 200.306 184.387 200.719 184.349 201.162Z" fill="#263238"/>
<path d="M126.084 129.988C124.942 129.987 123.819 129.686 122.83 129.115C121.841 128.544 121.019 127.723 120.446 126.734C119.874 125.745 119.572 124.624 119.569 123.481C119.567 122.339 119.865 121.216 120.434 120.225L139.111 87.6443C139.678 86.6535 140.499 85.8311 141.488 85.2612C142.478 84.6913 143.6 84.3943 144.742 84.4005C145.884 84.3936 147.007 84.6903 147.997 85.2603C148.986 85.8303 149.806 86.653 150.373 87.6443L169.252 120.114C169.837 121.102 170.15 122.227 170.159 123.374C170.168 124.522 169.872 125.652 169.301 126.648C168.73 127.644 167.906 128.47 166.911 129.044C165.917 129.617 164.788 129.916 163.64 129.91L126.078 130.027L126.084 129.988ZM144.768 86.3143C143.965 86.3138 143.177 86.526 142.483 86.9294C141.789 87.3329 141.214 87.9131 140.817 88.6109L122.14 121.191C121.741 121.886 121.531 122.674 121.533 123.476C121.534 124.278 121.746 125.065 122.147 125.759C122.549 126.453 123.126 127.029 123.82 127.43C124.514 127.83 125.302 128.042 126.104 128.042L163.666 127.925C164.473 127.932 165.266 127.724 165.965 127.323C166.665 126.922 167.245 126.342 167.646 125.642C168.047 124.943 168.254 124.149 168.247 123.343C168.24 122.537 168.018 121.747 167.604 121.055L148.726 88.6174C148.329 87.9174 147.754 87.3353 147.058 86.9306C146.363 86.5259 145.573 86.3133 144.768 86.3143Z" fill="white"/>
<path d="M142.167 119.439C142.166 119.115 142.23 118.794 142.357 118.495C142.483 118.196 142.668 117.926 142.901 117.7C143.135 117.475 143.411 117.299 143.714 117.183C144.017 117.067 144.341 117.014 144.665 117.026C144.991 117.007 145.319 117.054 145.627 117.165C145.935 117.276 146.217 117.449 146.456 117.672C146.695 117.896 146.886 118.166 147.018 118.465C147.149 118.765 147.218 119.088 147.221 119.416C147.224 119.743 147.16 120.067 147.033 120.369C146.906 120.671 146.72 120.944 146.484 121.171C146.249 121.399 145.969 121.576 145.663 121.692C145.357 121.808 145.031 121.86 144.704 121.846C144.377 121.861 144.052 121.81 143.746 121.696C143.44 121.582 143.16 121.407 142.923 121.183C142.686 120.958 142.497 120.688 142.367 120.388C142.237 120.089 142.169 119.766 142.167 119.439ZM142.245 99.873H146.851L146.202 114.438H143.121L142.245 99.873Z" fill="white"/>
<path d="M121.297 137.332C121.004 137.268 120.721 137.168 120.453 137.033C119.705 136.712 118.988 136.321 118.312 135.866C116.055 134.355 114.279 132.229 113.193 129.74C112.108 127.25 111.759 124.502 112.188 121.82C112.308 121.016 112.506 120.225 112.778 119.459C112.866 119.171 112.985 118.895 113.135 118.635C112.83 119.7 112.591 120.783 112.422 121.879C112.067 124.512 112.441 127.192 113.504 129.627C114.567 132.062 116.277 134.16 118.449 135.69C119.363 136.296 120.314 136.844 121.297 137.332Z" fill="white"/>
<path d="M113.285 136.541C113.285 136.541 113.116 136.443 112.85 136.21C112.475 135.887 112.128 135.533 111.812 135.152C110.743 133.905 109.902 132.48 109.327 130.942C108.748 129.404 108.441 127.778 108.419 126.135C108.412 125.64 108.44 125.146 108.503 124.656C108.511 124.471 108.549 124.29 108.614 124.117C108.672 124.117 108.614 124.896 108.659 126.128C108.826 129.36 109.991 132.461 111.994 135.003C112.792 135.97 113.323 136.495 113.285 136.541Z" fill="white"/>
<path d="M178.815 113.978C178.928 114.204 179.011 114.444 179.062 114.691C179.152 114.969 179.224 115.253 179.276 115.541C179.361 115.922 179.426 116.308 179.47 116.696C179.605 117.702 179.646 118.718 179.594 119.732C179.519 120.974 179.324 122.206 179.01 123.41C178.672 124.61 178.22 125.774 177.66 126.888C177.195 127.8 176.648 128.669 176.026 129.483C175.773 129.833 175.5 130.131 175.273 130.378C175.083 130.608 174.877 130.825 174.657 131.027C174.485 131.209 174.296 131.374 174.092 131.52C174.04 131.468 174.825 130.741 175.831 129.359C176.419 128.539 176.938 127.671 177.381 126.764C178.473 124.569 179.119 122.179 179.282 119.732C179.347 118.735 179.332 117.735 179.237 116.741C179.062 114.99 178.75 113.978 178.815 113.978Z" fill="white"/>
<path d="M183.065 121.113C183.176 121.675 183.206 122.249 183.156 122.82C183.058 125.588 182.305 128.294 180.956 130.715C180.704 131.227 180.381 131.701 179.996 132.123C180.214 131.602 180.463 131.095 180.742 130.605C181.954 128.171 182.691 125.529 182.915 122.82C182.931 122.248 182.981 121.679 183.065 121.113Z" fill="white"/>
<path d="M17.276 168.588C17.276 168.588 31.3668 164.845 32.1972 165.52C36.5179 168.965 59.3669 166.266 59.3669 166.266L81.1715 172.423C81.1715 172.423 84.7136 198.541 87.1075 208.753C88.7035 215.545 82.709 225.756 82.709 225.756L75.0148 253.653L81.6645 264.643L17.25 264.61V168.595L17.276 168.588Z" fill="#F27370"/>
<path d="M73.3609 198.626C73.3609 198.626 73.1663 198.626 72.7965 198.684C72.4267 198.743 71.8753 198.756 71.1746 198.84C69.1943 199.057 67.2262 199.373 65.2775 199.787C62.7992 200.293 59.8863 201.026 56.6426 201.818C55.0207 202.207 53.308 202.609 51.5239 202.966C50.6287 203.135 49.7269 203.329 48.7862 203.42L48.0791 203.498H47.3655C46.8854 203.498 46.4053 203.537 45.9187 203.498C42.2958 203.298 38.6957 202.797 35.156 201.999C31.9122 201.351 28.9539 200.631 26.4886 200.092C24.0234 199.554 22.0187 199.138 20.6499 198.931C19.9557 198.801 19.4043 198.749 19.041 198.697C18.6777 198.645 18.4766 198.606 18.4766 198.606C18.4766 198.606 19.2616 198.652 20.6629 198.853C22.0642 199.054 24.0688 199.43 26.5405 199.949C29.0123 200.468 31.9446 201.15 35.2143 201.811C38.7465 202.6 42.3376 203.097 45.9512 203.297C46.4313 203.329 46.9113 203.297 47.3849 203.297H48.0921C48.3256 203.297 48.5527 203.245 48.7862 203.219C49.7139 203.135 50.6222 202.94 51.511 202.771C53.295 202.421 55.0013 202.019 56.6231 201.636C59.8669 200.858 62.7928 200.131 65.271 199.651C67.9319 199.07 70.6392 198.727 73.3609 198.626Z" fill="#FAFAFA"/>
<path d="M76.1307 248.573L75.6246 248.229C75.3068 247.989 74.8137 247.671 74.1779 247.263C72.3598 246.142 70.4234 245.226 68.404 244.531C65.4067 243.511 62.2725 242.949 59.1074 242.864C55.2279 242.91 51.3563 243.227 47.5207 243.811C43.6764 244.385 39.8045 244.755 35.9211 244.92C32.7418 245.026 29.5618 244.731 26.4558 244.045C24.3634 243.57 22.3433 242.819 20.4483 241.813C19.7996 241.443 19.2806 241.164 18.9497 240.911C18.6189 240.658 18.4502 240.567 18.4502 240.567C18.4502 240.567 18.6383 240.671 18.9757 240.879C19.313 241.086 19.8191 241.385 20.4873 241.742C22.3922 242.719 24.4159 243.445 26.5077 243.902C29.6033 244.568 32.7697 244.847 35.934 244.732C39.8109 244.559 43.6762 244.184 47.5142 243.61C51.3577 243.021 55.2387 242.711 59.1269 242.682C62.3102 242.772 65.4608 243.35 68.4689 244.395C70.4945 245.105 72.4319 246.045 74.2428 247.198C74.8915 247.613 75.3587 247.95 75.67 248.197C75.9814 248.443 76.1307 248.573 76.1307 248.573Z" fill="#FAFAFA"/>
<path d="M77.039 257.779C77.039 257.779 76.8379 257.844 76.4486 257.948C76.0594 258.052 75.4949 258.201 74.7683 258.435C72.7249 259.098 70.7194 259.874 68.7609 260.757C65.8723 262.124 62.859 263.21 59.7627 264.001C57.9173 264.419 56.0303 264.626 54.1381 264.617C52.1092 264.586 50.0874 264.369 48.0982 263.968C44.011 263.138 40.2548 261.853 36.7969 260.861C33.7505 259.921 30.6194 259.283 27.4484 258.954C25.3114 258.739 23.1553 258.816 21.0388 259.181C20.2927 259.33 19.7413 259.453 19.3326 259.57C18.9238 259.687 18.7422 259.719 18.7422 259.719C18.7422 259.719 18.9368 259.648 19.3196 259.531C19.7023 259.414 20.2797 259.265 21.0258 259.103C23.1474 258.71 25.313 258.612 27.4614 258.811C30.6449 259.123 33.7895 259.751 36.8488 260.686C40.3132 261.672 44.0694 262.943 48.1371 263.767C50.1159 264.164 52.1266 264.381 54.1445 264.416C56.021 264.425 57.8926 264.222 59.7238 263.813C62.811 263.013 65.8169 261.927 68.7025 260.569C70.6683 259.693 72.6853 258.937 74.7424 258.305C75.4755 258.078 76.0399 257.941 76.4421 257.851L77.039 257.779Z" fill="#FAFAFA"/>
<g opacity="0.3">
<path opacity="0.3" d="M76.9229 246.841C77.2407 237.019 78.8691 225.503 77.4483 216.35C79.44 220.592 81.5614 230.058 81.5614 230.058C81.2247 231.657 80.7914 233.234 80.2639 234.781C79.1675 238.485 78.0257 243.15 76.9293 246.86" fill="black"/>
</g>
<path d="M81.0031 226.373C81.0031 226.373 80.802 226.237 80.4387 225.964C79.914 225.563 79.3659 225.192 78.7974 224.855C76.6716 223.641 74.3405 222.83 71.9206 222.461C68.3428 221.923 64.7014 221.969 61.1384 222.597C57.1096 223.246 52.7889 224.544 48.2023 225.634C43.6156 226.723 39.1198 227.58 35.0196 227.093C31.4016 226.703 27.8844 225.659 24.6396 224.012C23.3958 223.38 22.2105 222.64 21.0974 221.799C20.6239 221.404 20.1762 221.04 19.7999 220.684C19.4237 220.327 19.0798 219.976 18.7944 219.652L18.0743 218.75C17.9074 218.523 17.7536 218.287 17.6136 218.043C17.3736 217.66 17.2568 217.446 17.2568 217.446C17.2568 217.446 17.3996 217.641 17.6461 218.024C17.7758 218.205 17.9121 218.458 18.1197 218.718L18.8528 219.6C19.1447 219.918 19.5015 220.249 19.8648 220.612C20.2281 220.975 20.6952 221.326 21.1623 221.709C22.2763 222.537 23.4617 223.264 24.7045 223.882C27.9401 225.503 31.4406 226.529 35.0391 226.912C39.1068 227.372 43.5896 226.522 48.1569 225.439C52.7241 224.355 57.0577 223.058 61.1319 222.416C64.7137 221.79 68.3742 221.76 71.966 222.325C74.3891 222.71 76.7191 223.544 78.8363 224.784C79.4015 225.134 79.9452 225.517 80.4647 225.932C80.828 226.211 81.0031 226.373 81.0031 226.373Z" fill="#FAFAFA"/>
<path d="M67.3211 248.508C67.2061 248.556 67.0866 248.593 66.9642 248.618L65.9198 248.871C65.018 249.085 63.7075 249.377 62.0792 249.727C58.8354 250.422 54.2941 251.33 49.3377 252.245C44.3812 253.159 39.814 253.905 36.5313 254.405C34.89 254.651 33.5536 254.846 32.6388 254.963L31.5814 255.099C31.4565 255.116 31.3299 255.116 31.2051 255.099C31.3238 255.06 31.4452 255.03 31.5684 255.008L32.6194 254.814L36.5119 254.165C39.7556 253.607 44.2969 252.828 49.2987 251.914C54.3006 250.999 58.79 250.13 62.0532 249.487L65.9133 248.741L66.9707 248.553C67.0854 248.525 67.203 248.51 67.3211 248.508Z" fill="#263238"/>
<path d="M68.5401 225.49C68.5454 225.623 68.5345 225.756 68.5077 225.886C68.4623 226.139 68.4428 226.535 68.326 227.002C68.0462 228.364 67.6109 229.69 67.0285 230.953C66.1619 232.821 65.0516 234.566 63.7264 236.143C62.1007 238.078 60.2345 239.798 58.1731 241.261C54.3846 243.836 50.284 245.918 45.9701 247.457C44.3352 248.106 42.9923 248.547 42.0776 248.858L41.0071 249.215C40.8847 249.26 40.7589 249.294 40.6309 249.319C40.741 249.246 40.8612 249.189 40.9877 249.15L42.0387 248.735L45.9312 247.236C50.1969 245.643 54.2602 243.552 58.0369 241.008C60.054 239.549 61.8842 237.847 63.4864 235.942C64.8105 234.391 65.9271 232.675 66.808 230.836C67.4045 229.591 67.8677 228.286 68.1898 226.943C68.4234 226.022 68.5077 225.49 68.5401 225.49Z" fill="#263238"/>
<path d="M38.5361 93.8653C44.816 87.8708 54.5343 84.5297 62.3713 88.2665C67.6391 90.7772 71.1034 95.9088 75.6771 99.5289C79.0117 102.169 83.1702 104.258 84.8375 108.17C86.3037 111.615 85.4149 115.547 84.9154 119.257C84.4158 122.968 84.5391 127.282 87.3482 129.761C88.8208 131.058 90.7995 131.629 92.4733 132.661C95.8468 134.743 97.7606 138.636 98.3705 142.554C98.9803 146.473 98.4548 150.456 97.9293 154.387L81.451 156.982L78.9079 152.37L77.7596 159.454L56.779 160.687L38.5361 93.8653Z" fill="#263238"/>
<path d="M35.5905 100.547L35.4024 105.089L31.8991 173.35C31.5293 181.265 38.8862 188.272 47.3588 188.583C55.9224 188.92 59.6202 182.601 60.1263 174.609C60.6583 166.227 61.3719 157.41 61.3719 157.41C61.3719 157.41 72.2774 156.262 75.3654 142.307C76.903 135.359 77.2403 123.851 77.2144 114.411C77.2084 112.401 76.7962 110.412 76.0026 108.565C75.209 106.718 74.0504 105.05 72.5962 103.662C71.142 102.274 69.4222 101.194 67.5403 100.487C65.6583 99.7802 63.6528 99.4609 61.6444 99.5483L35.5905 100.547Z" fill="#FFBE9D"/>
<path d="M72.3095 122.748C72.2859 123.22 72.0786 123.664 71.7319 123.985C71.3852 124.307 70.9266 124.48 70.4541 124.467C70.2236 124.471 69.9947 124.428 69.7807 124.342C69.5668 124.256 69.372 124.129 69.2078 123.967C69.0436 123.805 68.9132 123.613 68.8242 123.4C68.7352 123.187 68.6894 122.959 68.6895 122.728C68.713 122.258 68.9194 121.814 69.2647 121.493C69.61 121.172 70.067 120.999 70.5384 121.009C70.7697 121.004 70.9996 121.045 71.2147 121.13C71.4298 121.215 71.6257 121.343 71.7908 121.505C71.9559 121.667 72.0868 121.86 72.1759 122.074C72.265 122.287 72.3104 122.517 72.3095 122.748Z" fill="#263238"/>
<path d="M74.386 120.263C74.1459 120.484 72.8355 119.388 70.8957 119.277C68.9559 119.167 67.4638 120.049 67.2692 119.796C67.1719 119.686 67.4249 119.277 68.0736 118.862C68.9491 118.327 69.9694 118.078 70.993 118.149C72.0049 118.206 72.9725 118.583 73.7567 119.225C74.3276 119.725 74.5157 120.16 74.386 120.263Z" fill="#263238"/>
<path d="M53.4052 122.138C53.3801 122.61 53.1723 123.053 52.8259 123.374C52.4796 123.695 52.0219 123.868 51.5498 123.857C51.3185 123.862 51.0887 123.82 50.8739 123.734C50.6592 123.648 50.4638 123.52 50.2993 123.357C50.1348 123.194 50.0046 123 49.9163 122.787C49.828 122.573 49.7834 122.343 49.7852 122.112C49.8104 121.642 50.0172 121.2 50.3622 120.879C50.7071 120.558 51.1632 120.384 51.6342 120.393C51.8657 120.389 52.0959 120.431 52.311 120.516C52.5261 120.602 52.7219 120.73 52.8869 120.893C53.0519 121.055 53.1827 121.249 53.2717 121.463C53.3608 121.677 53.4061 121.906 53.4052 122.138Z" fill="#263238"/>
<path d="M55.2414 119.471C55.0079 119.698 53.6974 118.602 51.7512 118.485C49.8049 118.368 48.3193 119.264 48.1246 119.011C48.0273 118.9 48.2803 118.492 48.9291 118.076C49.8052 117.543 50.825 117.294 51.8485 117.363C52.8611 117.418 53.8295 117.795 54.6122 118.44C55.1831 118.933 55.3582 119.374 55.2414 119.471Z" fill="#263238"/>
<path d="M61.4365 134.322C61.4365 134.212 62.6562 134.075 64.6284 133.946C65.1279 133.946 65.6015 133.855 65.7118 133.517C65.7828 133.006 65.6969 132.486 65.4653 132.025L64.2262 128.133C62.507 122.625 61.3003 118.11 61.5209 118.045C61.7414 117.98 63.3114 122.385 65.0306 127.893C65.4393 129.249 65.8351 130.546 66.2048 131.785C66.4785 132.397 66.529 133.086 66.3476 133.731C66.2623 133.897 66.1411 134.041 65.9929 134.153C65.8448 134.265 65.6733 134.343 65.4912 134.38C65.2096 134.438 64.9219 134.46 64.6349 134.445C62.6627 134.497 61.4365 134.432 61.4365 134.322Z" fill="#263238"/>
<path d="M61.398 157.443C54.7552 157.144 48.3255 155.009 42.8242 151.273C42.8242 151.273 46.8205 161.232 60.9893 160.758L61.398 157.443Z" fill="#EB996E"/>
<path d="M59.8023 137.669C59.2783 137.384 58.6904 137.239 58.0943 137.245C57.4982 137.252 56.9137 137.411 56.3964 137.708C56.0188 137.911 55.6859 138.188 55.4173 138.522C55.1487 138.856 54.95 139.241 54.8329 139.654C54.7216 140.054 54.736 140.479 54.874 140.872C55.0121 141.264 55.2672 141.604 55.6049 141.847C56.0293 142.043 56.5025 142.109 56.9645 142.036C57.4264 141.964 57.8564 141.755 58.1999 141.438C58.9173 140.776 59.4952 139.978 59.8996 139.089C60.0436 138.86 60.1406 138.604 60.1851 138.337C60.2055 138.213 60.1894 138.085 60.1388 137.97C60.0881 137.855 60.005 137.757 59.8996 137.688" fill="#EB996E"/>
<path d="M54.5532 113.976C54.4819 114.534 52.5226 114.703 50.3493 115.456C48.176 116.208 46.5022 117.214 46.1 116.812C45.9248 116.617 46.1 116.065 46.7488 115.404C47.581 114.57 48.5993 113.945 49.72 113.581C50.8332 113.192 52.0236 113.076 53.1909 113.243C54.0796 113.386 54.5792 113.704 54.5532 113.976Z" fill="#263238"/>
<path d="M75.1642 117.305C74.6322 117.597 73.218 116.656 71.3496 116.04C69.4812 115.423 67.8074 115.216 67.5803 114.658C67.4895 114.392 67.8787 114.048 68.6962 113.873C69.8131 113.682 70.9606 113.787 72.0243 114.178C73.0979 114.53 74.0585 115.161 74.8074 116.007C75.3394 116.65 75.4172 117.156 75.1642 117.305Z" fill="#263238"/>
<path d="M45.9701 92.5676C48.4095 96.0838 49.5383 98.7566 50.8747 104.894C51.5235 107.904 49.0258 109.935 46.554 111.68C46.2884 111.868 45.9798 111.987 45.6565 112.025C45.3332 112.063 45.0055 112.019 44.7034 111.898C44.4014 111.776 44.1346 111.581 43.9274 111.33C43.7203 111.079 43.5795 110.78 43.5179 110.46C43.5179 110.46 44.0239 119.815 40.5271 123.902C38.8793 125.816 38.7301 128.333 39.0415 130.468C39.3871 132.65 40.3713 134.682 41.87 136.306C45.6588 140.549 46.5281 147.335 43.6606 152.272C42.8364 153.488 42.0764 154.746 41.3835 156.041C41.0309 156.815 40.8516 157.656 40.858 158.507C40.884 159.004 40.7182 159.493 40.3948 159.872C40.0713 160.251 39.6148 160.491 39.1193 160.544C27.4528 161.849 15.6755 161.821 4.01541 160.459C3.61517 160.411 3.2398 160.24 2.94113 159.969C2.64247 159.698 2.43526 159.341 2.34812 158.948C1.55665 155.055 3.22394 150.871 5.29345 147.368C7.60949 143.475 10.5224 139.719 11.4177 135.262C12.261 131.071 11.262 126.484 13.085 122.611C15.3167 117.862 21.0451 115.767 24.0164 111.44C26.8255 107.359 26.7866 101.877 29.3167 97.6213C32.5605 92.1524 40.2157 89.8363 45.9637 92.5611" fill="#263238"/>
<path d="M46.4446 97.7574C50.8107 100.184 52.6791 105.679 56.9089 108.332C60.7625 110.745 65.68 110.278 70.1953 109.772C70.0591 108.773 69.9294 107.768 69.7931 106.769C70.1664 107.683 70.7052 108.521 71.3826 109.24C71.7249 109.596 72.1571 109.853 72.6333 109.983C73.1096 110.113 73.6121 110.112 74.0879 109.98C75.6189 109.415 75.8849 107.352 75.5475 105.763C74.9408 103.215 73.6616 100.876 71.8432 98.99C68.601 95.4716 64.1993 93.2397 59.445 92.7035C54.6907 92.1673 49.9024 93.3627 45.958 96.0706" fill="#263238"/>
<path d="M30.2063 107.956C31.0752 105.823 31.3529 103.495 31.0104 101.218C30.6679 98.9402 29.7178 96.797 28.2601 95.0137C26.8638 93.4129 25.0287 92.2566 22.9819 91.6881C20.9352 91.1196 18.7666 91.1639 16.7448 91.8154C14.862 92.3907 13.2192 93.5664 12.0673 95.163C9.95881 98.2121 10.1989 102.812 12.1775 105.939C13.1555 107.415 14.4563 108.649 15.9814 109.548C17.5066 110.447 19.2162 110.988 20.9811 111.129C24.3935 111.453 27.8254 110.48 31.0367 109.137" fill="#263238"/>
<path d="M24.0166 108.663C24.0685 108.611 24.847 109.312 26.2937 110.181C27.142 110.692 28.0343 111.126 28.9601 111.478C31.2374 112.331 33.67 112.689 36.0963 112.529C37.0805 112.468 38.0574 112.32 39.0157 112.088C40.6506 111.686 41.6107 111.232 41.6107 111.297C41.4127 111.445 41.1942 111.563 40.962 111.647C40.702 111.778 40.4332 111.891 40.1575 111.984C39.7986 112.123 39.4326 112.242 39.0611 112.341C38.0923 112.612 37.0994 112.788 36.0963 112.867C33.6268 113.057 31.1463 112.682 28.8433 111.77C27.9088 111.403 27.0116 110.946 26.164 110.408C25.8349 110.212 25.5185 109.995 25.2168 109.759C24.9879 109.589 24.7711 109.402 24.568 109.201C24.3628 109.045 24.1776 108.864 24.0166 108.663Z" fill="#455A64"/>
<path d="M41.9871 117.376C41.7377 117.48 41.4761 117.552 41.2086 117.59C40.7026 117.701 39.9695 117.843 39.0483 117.973C36.6479 118.354 34.1976 118.288 31.8212 117.778C29.4216 117.227 27.2684 115.906 25.6905 114.016C25.2253 113.439 24.8451 112.799 24.5617 112.115C24.447 111.87 24.3683 111.61 24.3281 111.343C24.749 112.235 25.2715 113.075 25.8851 113.847C27.4703 115.634 29.572 116.883 31.8991 117.422C34.2443 117.921 36.6571 118.02 39.0353 117.714C39.9501 117.616 40.6896 117.512 41.2021 117.448C41.4599 117.392 41.7235 117.368 41.9871 117.376Z" fill="#455A64"/>
<path d="M15.4788 159.74C15.4788 159.74 15.4463 159.74 15.3944 159.643C15.3109 159.539 15.2329 159.43 15.1609 159.318C14.903 158.876 14.7292 158.39 14.6484 157.884C14.5399 156.946 14.6376 155.996 14.9345 155.099C15.2315 154.203 15.7206 153.382 16.3676 152.694C17.2486 151.758 18.2603 150.954 19.3713 150.307C20.552 149.58 21.882 148.925 23.1795 148.108C24.5626 147.297 25.7586 146.202 26.6892 144.896C27.1502 144.2 27.4637 143.416 27.6104 142.593C27.7486 141.732 27.731 140.853 27.5585 139.998C27.151 138.315 26.6064 136.669 25.9302 135.074C25.295 133.553 24.9432 131.928 24.8922 130.28C24.9034 127.476 25.8433 124.754 27.565 122.54C28.6914 121.039 30.1592 119.827 31.8468 119.005L32.6447 118.654L33.2935 118.46C33.4595 118.399 33.6312 118.356 33.806 118.33C33.6469 118.409 33.4821 118.477 33.313 118.531L32.7226 118.758L31.9441 119.135C30.309 119.996 28.8931 121.221 27.8051 122.716C26.1324 124.891 25.2207 127.556 25.2101 130.3C25.2722 131.904 25.6238 133.484 26.2481 134.964C26.9421 136.569 27.4999 138.229 27.9153 139.927C28.0945 140.818 28.1121 141.735 27.9672 142.632C27.826 143.522 27.4917 144.37 26.9876 145.117C26.0224 146.443 24.7863 147.549 23.3611 148.361C22.0636 149.185 20.7077 149.827 19.5335 150.541C18.4235 151.176 17.4135 151.971 16.5363 152.902C15.9018 153.56 15.415 154.347 15.1085 155.208C14.802 156.069 14.6827 156.986 14.7587 157.897C14.8704 158.554 15.1154 159.181 15.4788 159.74Z" fill="#455A64"/>
<path d="M34.2406 160.609C34.0972 160.543 33.9622 160.46 33.8384 160.363C33.4909 160.084 33.204 159.737 32.995 159.344C32.6535 158.712 32.4584 158.011 32.4241 157.294C32.3836 156.345 32.5199 155.397 32.8263 154.498C33.4751 152.441 35.2591 150.605 36.6345 148.289C37.3777 147.091 37.7876 145.716 37.8217 144.306C37.7941 142.791 37.447 141.299 36.8032 139.927C35.5511 137.046 33.5594 134.737 32.2165 132.317C31.5495 131.187 31.0285 129.977 30.666 128.716C30.3614 127.606 30.282 126.446 30.4324 125.304C30.5962 123.631 31.3809 122.08 32.6317 120.957C32.9811 120.673 33.3701 120.441 33.7865 120.27C33.9289 120.203 34.0794 120.155 34.2341 120.127C33.2103 120.564 32.3329 121.285 31.7053 122.205C31.0777 123.124 30.7261 124.204 30.6919 125.317C30.5616 126.423 30.6542 127.543 30.9644 128.613C31.3295 129.85 31.8505 131.036 32.5149 132.142C33.1637 133.316 34.0135 134.497 34.8439 135.736C35.7302 137.009 36.4989 138.359 37.1405 139.771C37.7923 141.197 38.1371 142.744 38.1526 144.312C38.1081 145.782 37.6713 147.214 36.8875 148.458C35.4603 150.826 33.6437 152.616 33.0339 154.582C32.7226 155.447 32.573 156.362 32.5928 157.281C32.6066 157.975 32.7727 158.657 33.0793 159.279C33.3706 159.798 33.766 160.251 34.2406 160.609Z" fill="#455A64"/>
<path d="M63.8045 108.546C63.8045 108.546 63.7136 108.546 63.545 108.423C63.3041 108.285 63.0742 108.129 62.8573 107.956C62.075 107.301 61.4159 106.513 60.911 105.627C60.1811 104.313 59.571 102.937 59.088 101.514C58.7896 100.722 58.4717 99.9047 58.0695 99.0873C57.6524 98.2495 57.1549 97.4543 56.5839 96.7129C54.5624 94.088 51.7732 92.1583 48.6042 91.192C47.2829 90.8252 45.9295 90.5863 44.5625 90.4784C44.9336 90.4421 45.3073 90.4421 45.6784 90.4784C46.6914 90.538 47.6957 90.701 48.6756 90.9649C50.1315 91.3682 51.5197 91.9847 52.7951 92.7944C55.2018 94.2839 57.1417 96.4194 58.3939 98.9576C58.7961 99.7944 59.114 100.625 59.4059 101.416C59.8687 102.831 60.448 104.204 61.1381 105.523C61.6113 106.401 62.2274 107.195 62.9611 107.871C63.4866 108.319 63.8239 108.514 63.8045 108.546Z" fill="#455A64"/>
<path d="M73.6531 108.787C73.5238 108.786 73.3952 108.769 73.2704 108.735C72.9103 108.668 72.5581 108.563 72.2194 108.424C70.9669 107.913 69.8434 107.131 68.9302 106.133C67.5822 104.66 66.4586 102.997 65.5956 101.196C64.5511 99.2177 63.5521 96.9536 61.9561 94.9619C60.4449 93.0991 58.4118 91.7301 56.1174 91.0305C54.2324 90.466 52.2837 90.1412 50.3175 90.0639C48.6373 89.973 47.2684 89.999 46.3212 90.0055H45.2119C45.0847 90.021 44.9562 90.021 44.8291 90.0055C44.9523 89.9747 45.0785 89.9573 45.2054 89.9536C45.4519 89.9536 45.8541 89.9017 46.2953 89.8822C47.236 89.8303 48.6048 89.7654 50.3046 89.8238C52.2991 89.8661 54.2794 90.1693 56.1952 90.7256C58.5706 91.425 60.6785 92.8273 62.2416 94.7478C63.8829 96.7979 64.8755 99.088 65.8941 101.06C66.7383 102.842 67.8304 104.495 69.1378 105.971C70.0167 106.963 71.0927 107.761 72.2972 108.313C73.1341 108.683 73.6596 108.787 73.6531 108.787Z" fill="#455A64"/>
<path d="M88.8207 155.146C88.7818 155.146 89.0219 154.647 89.2878 153.732C89.6652 152.443 89.851 151.105 89.8393 149.762C89.8376 147.773 89.3945 145.81 88.5418 144.014C88.0207 142.959 87.3666 141.976 86.5955 141.088C85.804 140.154 84.8958 139.265 84.0005 138.331C83.0862 137.432 82.2425 136.465 81.4769 135.437C80.7791 134.464 80.1813 133.423 79.6928 132.33C78.8743 130.481 78.3742 128.507 78.2136 126.491C78.1117 125.128 78.177 123.757 78.4083 122.41C78.4796 121.937 78.577 121.573 78.6353 121.327C78.6601 121.2 78.6993 121.075 78.7521 120.957C78.791 120.957 78.6613 121.483 78.551 122.43C78.3806 123.764 78.361 125.113 78.4926 126.452C78.5804 127.376 78.7409 128.291 78.9727 129.19C79.2291 130.221 79.581 131.227 80.0237 132.193C80.5087 133.262 81.0999 134.279 81.7883 135.23C82.5484 136.238 83.3833 137.188 84.286 138.071C85.1942 139.005 86.109 139.907 86.881 140.861C89.0186 143.329 90.1733 146.497 90.1247 149.762C90.1231 151.126 89.9041 152.482 89.476 153.777C89.3566 154.127 89.2157 154.47 89.0543 154.802C88.9924 154.927 88.9139 155.043 88.8207 155.146Z" fill="#455A64"/>
<path d="M11.8332 104.842C11.8295 104.538 11.8733 104.236 11.963 103.946C12.1587 103.147 12.4552 102.375 12.8453 101.65C13.4374 100.499 14.2621 99.4839 15.2672 98.6687C16.2723 97.8534 17.4359 97.2559 18.684 96.914C20.2969 96.5935 21.968 96.7477 23.495 97.358C25.0219 97.9683 26.3389 99.0085 27.2865 100.352C27.4695 100.584 27.6161 100.842 27.7211 101.118C27.0605 100.316 26.3216 99.5811 25.5154 98.9251C24.5691 98.1982 23.4768 97.6844 22.3133 97.419C21.1499 97.1536 19.9428 97.1429 18.7749 97.3876C17.5812 97.7147 16.4645 98.2761 15.49 99.0391C14.5154 99.802 13.7024 100.751 13.0983 101.832C12.5838 102.793 12.1603 103.801 11.8332 104.842Z" fill="#455A64"/>
<path d="M19.6504 108.975C19.6593 108.273 19.7574 107.575 19.9423 106.899C20.2359 105.23 20.9555 103.666 22.0313 102.357C22.5691 101.757 23.2746 101.333 24.0566 101.138C24.8385 100.944 25.6608 100.989 26.4169 101.267C26.8766 101.461 27.2708 101.783 27.5522 102.195C27.7468 102.5 27.8052 102.695 27.7857 102.708C27.3923 102.221 26.8871 101.836 26.3131 101.585C25.6104 101.377 24.8632 101.371 24.1574 101.568C23.4515 101.766 22.8158 102.158 22.3232 102.701C21.3068 103.954 20.592 105.423 20.2343 106.996C20.0909 107.67 19.8957 108.331 19.6504 108.975Z" fill="#455A64"/>
<path d="M30.4978 95.8119C30.6081 95.9027 29.2003 97.8749 28.1817 100.755C27.1632 103.636 27.027 106.153 26.8842 106.14C26.7415 106.127 26.735 103.545 27.7795 100.58C28.824 97.6154 30.4329 95.7535 30.4978 95.8119Z" fill="#F27370"/>
<path d="M0.0129753 141.684C0.389313 142.149 0.875357 142.512 1.42725 142.742C2.07705 143.003 2.7814 143.099 3.47731 143.021C4.40042 142.932 5.27431 142.563 5.98149 141.963C7.57741 140.666 8.45323 138.116 8.38187 135.411C8.38187 134.049 8.19373 132.621 8.05749 131.136C7.87321 129.595 7.8994 128.037 8.13534 126.504C8.26999 125.725 8.51463 124.969 8.86194 124.259C9.21556 123.581 9.66573 122.958 10.1984 122.41C11.2328 121.401 12.4276 120.57 13.7341 119.951C14.9667 119.303 16.1669 118.829 17.2827 118.336C18.315 117.885 19.3069 117.347 20.2475 116.727C21.6419 115.873 22.7769 114.655 23.5302 113.204C23.7687 112.658 23.9429 112.085 24.0492 111.498C24.0492 111.498 24.0492 111.654 23.9908 111.959C23.9158 112.406 23.785 112.842 23.6016 113.256C22.8693 114.744 21.7342 115.996 20.3254 116.87C19.3814 117.501 18.3852 118.05 17.3476 118.511C16.2382 119.011 15.0381 119.517 13.8184 120.133C12.535 120.75 11.3605 121.572 10.3411 122.566C9.82128 123.106 9.38407 123.721 9.04359 124.389C8.70552 125.083 8.46536 125.821 8.32997 126.582C7.7915 129.696 8.58298 132.699 8.57 135.45C8.55703 138.201 7.72663 140.77 6.07231 142.113C5.33812 142.726 4.43114 143.096 3.47731 143.17C2.76531 143.242 2.0467 143.133 1.38833 142.852C0.819027 142.63 0.333541 142.235 0 141.723L0.0129753 141.684Z" fill="#263238"/>
<path d="M82.3001 95.9349C82.3603 96.0606 82.4039 96.1936 82.4299 96.3306C82.5124 96.7282 82.4855 97.1408 82.352 97.5243C82.0962 98.2289 81.6129 98.8283 80.9785 99.2277C80.3441 99.6271 79.5948 99.8039 78.8488 99.73C77.8221 99.6075 76.8542 99.1856 76.0656 98.5169C75.171 97.7609 74.4157 96.8541 73.8339 95.8375C73.1852 94.793 72.6013 93.6383 71.8293 92.5938C71.0425 91.4749 70.1159 90.4611 69.0721 89.5771C66.669 87.5437 63.7343 86.2403 60.6145 85.8207C57.4947 85.4012 54.3199 85.8829 51.465 87.2091C50.9979 87.4297 50.6346 87.6114 50.401 87.7476C50.1675 87.8839 50.0312 87.9357 50.0312 87.9357C50.4759 87.6357 50.9421 87.369 51.4261 87.1378C52.7501 86.494 54.1557 86.0335 55.604 85.7689C58.0033 85.3127 60.4747 85.4042 62.8337 86.0366C65.1928 86.6691 67.3785 87.8261 69.2278 89.4214C70.2859 90.315 71.2236 91.3421 72.0174 92.477C72.7959 93.5799 73.3733 94.7347 74.0156 95.7727C74.5857 96.773 75.323 97.6682 76.1954 98.4196C76.958 99.0714 77.8931 99.4883 78.8877 99.6198C79.7108 99.7138 80.5378 99.4808 81.1908 98.971C81.6952 98.5978 82.0806 98.0862 82.3001 97.4983C82.439 97.1279 82.4792 96.7277 82.4169 96.3371C82.3391 96.0711 82.3001 95.9349 82.3001 95.9349Z" fill="#263238"/>
<path d="M41.202 155.62L41.3252 155.562L41.695 155.393C42.0259 155.237 42.506 155.01 43.0963 154.673C44.8029 153.742 46.2398 152.385 47.2678 150.735C47.9452 149.593 48.339 148.305 48.4161 146.979C48.4565 146.242 48.3776 145.504 48.1826 144.792C47.9508 144.049 47.6168 143.342 47.19 142.69C46.1821 141.337 45.0121 140.113 43.7062 139.044C43.0574 138.454 42.3633 137.87 41.7145 137.228C41.0365 136.588 40.4375 135.869 39.9304 135.087C39.6798 134.688 39.4628 134.27 39.2817 133.835C39.1275 133.394 39.023 132.937 38.9703 132.473C38.8558 131.564 38.9581 130.642 39.2687 129.78C39.9251 128.207 40.7797 126.725 41.8118 125.369C42.7058 124.131 43.4139 122.77 43.9138 121.327C44.3314 120.068 44.5822 118.759 44.6598 117.435C44.7747 115.505 44.5102 113.572 43.8813 111.745C43.7167 111.247 43.5217 110.759 43.2975 110.285C43.1418 109.961 43.0704 109.779 43.0704 109.779C43.0704 109.779 43.1677 109.948 43.3299 110.266C43.5799 110.734 43.7966 111.22 43.9786 111.719C44.6384 113.551 44.9252 115.497 44.822 117.441C44.7314 118.783 44.463 120.107 44.0241 121.379C43.5214 122.838 42.8113 124.216 41.9156 125.473C40.898 126.819 40.0545 128.288 39.4049 129.845C39.1071 130.676 39.0093 131.565 39.1195 132.44C39.1716 132.883 39.2739 133.318 39.4244 133.738C39.6026 134.161 39.8198 134.567 40.0732 134.951C40.5686 135.723 41.1569 136.431 41.8248 137.059C42.4735 137.708 43.1223 138.279 43.771 138.869C45.0906 139.948 46.2697 141.188 47.2808 142.561C47.7173 143.229 48.0559 143.957 48.2863 144.721C48.4843 145.45 48.5632 146.205 48.5199 146.959C48.4298 148.311 48.0207 149.623 47.3262 150.787C46.2863 152.442 44.83 153.796 43.1028 154.712C42.4985 155.072 41.8622 155.376 41.202 155.62Z" fill="#263238"/>
<path d="M93.1735 129.878L93.2708 129.91C93.3694 129.943 93.4631 129.989 93.5497 130.046C93.88 130.276 94.1242 130.61 94.2439 130.994C94.3472 131.296 94.3822 131.617 94.3463 131.935C94.3104 132.252 94.2045 132.558 94.0363 132.83C93.7919 133.175 93.4667 133.456 93.089 133.647C92.7114 133.838 92.2927 133.934 91.8695 133.926C91.3596 133.926 90.8552 133.821 90.3876 133.618C89.92 133.415 89.4991 133.118 89.1512 132.745C88.349 131.905 87.744 130.897 87.3801 129.793C86.5302 127.49 86.5043 124.753 86.7703 122.008C87.0363 119.264 87.419 116.598 87.2893 114.191C87.2361 113.055 87.031 111.931 86.6795 110.85C86.3613 109.919 85.8994 109.043 85.3106 108.255C84.483 107.076 83.3216 106.173 81.976 105.66C81.4756 105.495 80.9608 105.378 80.4385 105.31C80.4385 105.31 80.5812 105.31 80.8472 105.31C81.0155 105.318 81.1827 105.342 81.3467 105.381C81.5683 105.42 81.7856 105.481 81.9955 105.563C83.3768 106.055 84.5728 106.961 85.4209 108.158C86.0264 108.96 86.5015 109.854 86.8287 110.804C87.196 111.899 87.4142 113.038 87.4774 114.191C87.6396 116.624 87.2439 119.271 86.9714 122.041C86.6989 124.811 86.7314 127.503 87.5553 129.774C87.9069 130.851 88.4917 131.836 89.268 132.661C89.5978 133.022 89.9984 133.311 90.4448 133.511C90.8912 133.711 91.3739 133.817 91.863 133.822C92.2728 133.835 92.6795 133.748 93.048 133.568C93.4165 133.388 93.7357 133.121 93.9779 132.791C94.1402 132.534 94.2441 132.244 94.2822 131.943C94.3203 131.641 94.2917 131.335 94.1985 131.046C94.0903 130.67 93.8626 130.339 93.5497 130.105C93.3292 129.93 93.167 129.897 93.1735 129.878Z" fill="#263238"/>
<path d="M31.9123 167.278C31.9123 167.278 37.2126 178.027 48.4295 177.554C59.6464 177.08 60.8142 167.174 60.8142 167.174L67.0941 174.083L60.8142 189.543L51.5825 193.533L36.5444 189.543L32.5222 183.172L22.5703 171.397L31.9123 167.278Z" fill="#F27370"/>
<path d="M69.2481 178.852H68.6772C68.1468 178.898 67.6228 179.001 67.1137 179.156C66.3138 179.427 65.5476 179.788 64.8301 180.233C63.9867 180.746 63.0785 181.414 62.0729 182.18C60.9956 183.016 59.8473 183.756 58.641 184.392C57.9518 184.721 57.2356 184.99 56.5001 185.196C55.7198 185.406 54.9235 185.552 54.1192 185.631C50.8041 185.975 47.1516 185.242 43.564 183.996C39.9765 182.751 36.6159 181.33 33.4111 180.577C31.8968 180.219 30.3398 180.075 28.7855 180.149C27.4319 180.195 26.0834 180.339 24.7503 180.577C22.8104 180.906 20.9218 181.486 19.1321 182.303C18.8142 182.446 18.5482 182.601 18.3146 182.731C18.1144 182.835 17.9215 182.952 17.7373 183.081L17.2637 183.386C17.8265 182.93 18.443 182.544 19.0996 182.238C20.8834 181.384 22.776 180.78 24.7243 180.441C26.0631 180.191 27.4182 180.037 28.779 179.98C30.3478 179.899 31.9202 180.039 33.45 180.396C36.6938 181.148 40.0348 182.575 43.6289 183.802C47.223 185.028 50.8236 185.748 54.0998 185.449C54.8942 185.368 55.6814 185.227 56.4547 185.028C57.1802 184.829 57.886 184.564 58.5632 184.236C59.7693 183.619 60.916 182.891 61.9886 182.063C63.0006 181.33 63.9348 180.668 64.7717 180.162C65.5007 179.722 66.2778 179.367 67.0878 179.105C67.6061 178.959 68.1394 178.874 68.6772 178.852C69.06 178.852 69.2481 178.852 69.2481 178.852Z" fill="#FAFAFA"/>
<path d="M70.5839 141.679L74.8527 150.307L75.242 154.978C75.242 154.978 75.6312 153.57 76.1113 152.247C76.5914 150.923 76.8963 146.784 76.8963 146.784L73.7823 140.329C73.7823 140.329 71.9463 136.768 74.1651 135.107L77.4607 139.46C77.4607 139.46 74.8657 134.458 77.3115 133.096L80.0946 136.223C79.9943 136.063 79.9298 135.884 79.9058 135.697C79.8818 135.51 79.8988 135.32 79.9556 135.14C80.0124 134.961 80.1077 134.796 80.2348 134.657C80.3618 134.517 80.5177 134.408 80.6915 134.335L87.7175 143.346L86.8416 156.613L84.4348 170.418L85.5831 172.481L73.1076 181.123C73.1076 181.123 69.2151 172.592 68.9426 169.77C68.6701 166.948 71.4533 151.994 71.4533 151.994C71.4533 151.994 68.7999 146.681 69.1437 144.553C69.4876 142.425 70.5839 141.679 70.5839 141.679Z" fill="#FFBE9D"/>
<path d="M74.1133 183.192L74.0355 183.068L73.8409 182.673L73.1078 181.122C72.459 179.753 71.5637 177.736 70.5128 175.108C69.9084 173.657 69.3927 172.171 68.9687 170.658C68.771 169.77 68.7293 168.854 68.8455 167.952C68.9233 167.031 69.0271 166.071 69.1569 165.085C69.6694 161.14 70.4025 156.703 71.2718 151.837V151.98C70.4573 150.36 69.7823 148.674 69.2542 146.939C69.1199 146.48 69.0159 146.011 68.9428 145.538C68.9079 145.289 68.8927 145.037 68.8974 144.785V144.403L68.9687 144.033C69.0694 143.54 69.2352 143.062 69.4618 142.612C69.6898 142.132 70.0197 141.707 70.4284 141.367L70.649 141.191L70.7852 141.457C72.1411 144.195 73.5814 147.076 75.0605 150.053V150.099V150.144C75.1903 151.61 75.32 153.206 75.4563 154.822L74.9502 154.77C75.1513 154.121 75.3589 153.472 75.599 152.823L75.9104 151.844C76.0066 151.518 76.0824 151.187 76.1374 150.851C76.371 149.482 76.5072 148.055 76.6175 146.628V146.764L74.7556 142.872C74.4377 142.223 74.1069 141.574 73.7955 140.88C73.6398 140.549 73.4581 140.231 73.3154 139.848C73.1681 139.492 73.0467 139.126 72.9521 138.752C72.7627 138.052 72.7251 137.32 72.8418 136.605C72.9636 135.86 73.3679 135.191 73.9706 134.736L74.1847 134.581L74.3404 134.788L77.6361 139.148L77.1884 139.427C76.6445 138.361 76.2578 137.223 76.0401 136.047C75.9234 135.445 75.9234 134.826 76.0401 134.224C76.1064 133.908 76.239 133.61 76.4291 133.349C76.6193 133.089 76.8626 132.872 77.143 132.712L77.3311 132.608L77.4674 132.771L80.2894 136.164L79.8678 136.443C79.6735 136.04 79.61 135.586 79.6861 135.145C79.7345 134.917 79.8345 134.703 79.9784 134.52C80.1224 134.336 80.3065 134.189 80.5165 134.088L80.7046 133.99L80.8344 134.152L87.8604 143.06L87.9188 143.138V143.222C87.5944 148.01 87.27 152.447 87.017 156.508C86.0698 161.815 85.2459 166.441 84.5517 170.301V170.204L89.1579 178.728L90.3646 180.999L90.6695 181.589C90.7041 181.656 90.7345 181.726 90.7603 181.797C90.7092 181.74 90.6656 181.677 90.6305 181.609L90.2932 181.038L88.9957 178.806C87.8928 176.86 86.2904 173.966 84.2598 170.372V170.327V170.275C84.9086 166.382 85.7065 161.783 86.6148 156.463C86.8678 152.402 87.1532 147.958 87.4517 143.177L87.5036 143.339L80.4452 134.444L80.763 134.516C80.62 134.584 80.4943 134.683 80.3954 134.807C80.2965 134.93 80.227 135.075 80.1921 135.229C80.1399 135.563 80.1896 135.904 80.3349 136.209L81.1069 137.922L79.9132 136.488L77.1106 133.127L77.4414 133.186C77.2234 133.31 77.0348 133.48 76.8881 133.684C76.7415 133.887 76.6404 134.12 76.5916 134.367C76.4942 134.901 76.4942 135.448 76.5916 135.982C76.8007 137.111 77.1722 138.203 77.6944 139.226L77.2533 139.511L73.9576 135.158L74.3274 135.21C73.8309 135.583 73.4984 136.134 73.3997 136.747C73.2972 137.397 73.3348 138.06 73.51 138.694C73.596 139.044 73.7088 139.386 73.8474 139.719C73.9771 140.05 74.1523 140.367 74.308 140.718L75.2681 142.709L77.1365 146.602L77.169 146.667V146.738C77.0522 148.185 76.9159 149.612 76.6694 151.013C76.6133 151.368 76.5353 151.719 76.4359 152.064C76.3256 152.402 76.2218 152.713 76.118 153.057L75.5017 155.003L75.0994 156.262L74.9956 154.964C74.8594 153.349 74.7297 151.76 74.6064 150.293V150.384C73.1337 147.406 71.7065 144.545 70.3506 141.782L70.7009 141.873C70.3603 142.165 70.0842 142.525 69.89 142.93C69.6801 143.34 69.5253 143.777 69.4294 144.228C69.2864 145.127 69.3689 146.047 69.6694 146.907C70.1785 148.615 70.8295 150.277 71.6156 151.876V151.941V152.013C70.7269 156.859 69.9613 161.296 69.4229 165.221C69.2866 166.201 69.1763 167.167 69.092 168.076C68.9717 168.939 69.0024 169.817 69.1828 170.671C69.5847 172.177 70.0787 173.656 70.662 175.102C71.687 177.736 72.5628 179.766 73.1532 181.154C73.4516 181.836 73.6722 182.368 73.8019 182.731L73.9706 183.133C74.1069 183.146 74.1198 183.192 74.1133 183.192Z" fill="#EB996E"/>
<path d="M80.7761 153.667C80.6825 152.907 80.6825 152.138 80.7761 151.377C80.8474 149.963 80.9901 148.017 81.1848 145.869L81.2367 145.279L81.2821 145.454C80.1533 143.774 79.1672 142.262 78.4795 141.159C78.0656 140.592 77.7235 139.975 77.4609 139.323C77.9584 139.813 78.3942 140.362 78.7584 140.958C79.524 142.009 80.5555 143.482 81.6908 145.156L81.7492 145.233V145.324C81.7492 145.512 81.7168 145.713 81.6973 145.915C81.5092 148.062 81.308 150.008 81.1394 151.409C81.104 152.173 80.9821 152.931 80.7761 153.667Z" fill="#EB996E"/>
<path d="M84.4541 149.982C84.3741 149.286 84.3741 148.583 84.4541 147.887C84.5254 146.589 84.6552 144.792 84.8303 142.775L84.8887 142.963L84.493 142.457C83.1955 140.731 82.0018 139.155 81.1779 138C80.686 137.402 80.2658 136.749 79.9258 136.054C80.5091 136.561 81.0296 137.136 81.4763 137.766C82.3781 138.863 83.5977 140.4 84.9212 142.126C85.0509 142.295 85.1807 142.47 85.3104 142.632L85.3688 142.716V142.82C85.1807 144.831 84.986 146.622 84.8239 147.913C84.7889 148.616 84.6646 149.311 84.4541 149.982Z" fill="#EB996E"/>
<path d="M69.7402 178.235L87.1333 170.892C87.1333 170.892 112.435 227.599 113.888 231.264C117.378 239.899 113.927 252.712 104.429 252.479C99.9526 252.375 87.1333 250.636 83.6365 237.019C82.5401 232.75 79.4326 222.519 79.4326 222.519L69.7402 178.235Z" fill="#F27370"/>
<path d="M87.1333 170.892C87.038 170.958 86.9357 171.015 86.8284 171.06L85.9137 171.501L82.4299 173.149L69.9349 178.988L70.0128 178.832C71.0443 184.632 72.3288 191.528 73.9053 198.859C76.1629 209.505 78.6282 219.048 80.5225 225.919C81.4892 229.338 82.2742 232.108 82.8191 234.048C83.0916 234.988 83.2992 235.728 83.4679 236.253L83.6236 236.831C83.6488 236.895 83.6641 236.963 83.669 237.032C83.6364 236.972 83.6104 236.909 83.5911 236.844C83.5457 236.694 83.4809 236.513 83.403 236.273L82.7153 234.086C82.125 232.179 81.2946 229.415 80.3149 225.984C78.3687 219.126 75.858 209.583 73.5939 198.931C72.0304 191.593 70.7653 184.691 69.7598 178.878V178.767L69.8636 178.722L82.4104 173.013L85.9331 171.437L86.8608 171.028L87.1333 170.892Z" fill="#263238"/>
<path d="M111.072 227.638C111.028 227.729 110.976 227.815 110.917 227.897L110.437 228.63C110.19 229.019 109.919 229.392 109.626 229.746C109.288 230.168 108.931 230.674 108.464 231.16L107.744 231.952C107.491 232.224 107.206 232.484 106.92 232.763C106.356 233.334 105.694 233.866 105.007 234.45C103.467 235.651 101.821 236.708 100.089 237.609C98.3428 238.482 96.5183 239.188 94.6395 239.717C93.7702 239.932 92.9463 240.159 92.1548 240.275C91.7591 240.34 91.3828 240.425 91.013 240.47L89.949 240.58C89.3003 240.671 88.6515 240.665 88.1196 240.691C87.6594 240.72 87.1978 240.72 86.7377 240.691L85.8619 240.652C85.7625 240.658 85.6628 240.658 85.5635 240.652C85.6649 240.642 85.767 240.642 85.8684 240.652H86.7377C87.198 240.676 87.6593 240.676 88.1196 240.652C88.6515 240.613 89.2678 240.613 89.9361 240.509L90.987 240.386C91.3568 240.334 91.7331 240.249 92.1224 240.185C92.9073 240.061 93.7248 239.828 94.5941 239.614C98.336 238.557 101.834 236.776 104.89 234.372C105.571 233.801 106.239 233.275 106.836 232.711C107.121 232.438 107.413 232.185 107.666 231.913C107.919 231.64 108.159 231.387 108.387 231.134C108.86 230.654 109.23 230.161 109.574 229.753C109.869 229.401 110.146 229.035 110.404 228.656L110.917 227.949L111.072 227.638Z" fill="#FAFAFA"/>
<path d="M106.304 212.269C106.268 212.362 106.222 212.451 106.168 212.535C106.071 212.703 105.941 212.969 105.727 213.281C105.15 214.176 104.47 215.001 103.703 215.739C102.572 216.848 101.274 217.772 99.8556 218.477C98.1197 219.354 96.2284 219.881 94.2893 220.028C92.3587 220.081 90.4269 219.994 88.5089 219.768C86.9501 219.601 85.3756 219.653 83.8314 219.924C82.791 220.11 81.7957 220.493 80.899 221.053C80.2503 221.455 79.9843 221.76 79.9648 221.74C80.2322 221.453 80.5327 221.198 80.8601 220.981C81.7519 220.389 82.7534 219.98 83.8055 219.781C85.36 219.49 86.9482 219.422 88.5219 219.58C90.4321 219.794 92.3548 219.877 94.2763 219.827C96.1892 219.682 98.0556 219.167 99.7712 218.308C101.18 217.622 102.474 216.72 103.605 215.636C104.372 214.91 105.059 214.106 105.655 213.235C105.876 212.937 106.012 212.677 106.129 212.515C106.182 212.429 106.241 212.347 106.304 212.269Z" fill="#FAFAFA"/>
<path d="M75.5928 205.522C75.5928 205.522 75.9431 205.522 76.5659 205.522C77.4467 205.501 78.3201 205.357 79.1609 205.093C80.4026 204.697 81.582 204.127 82.6642 203.4C83.9866 202.494 85.2459 201.499 86.4334 200.422C87.624 199.341 88.876 198.33 90.1832 197.393C91.2667 196.635 92.4472 196.026 93.6929 195.583C94.5286 195.287 95.4027 195.114 96.2879 195.07C96.6128 195.054 96.9385 195.067 97.2611 195.109C97.2611 195.109 96.9107 195.109 96.2879 195.148C95.4012 195.221 94.5283 195.413 93.6929 195.719C92.4695 196.175 91.3114 196.79 90.2481 197.548C88.9511 198.491 87.7058 199.502 86.5177 200.578C85.3254 201.66 84.057 202.655 82.7225 203.556C81.621 204.286 80.419 204.852 79.1544 205.236C78.2994 205.487 77.4116 205.61 76.5205 205.599C76.2095 205.603 75.8989 205.577 75.5928 205.522Z" fill="#FAFAFA"/>
<path d="M88.5353 179.286C88.5263 179.349 88.5089 179.41 88.4834 179.468C88.4206 179.64 88.3446 179.807 88.2563 179.967C87.9215 180.561 87.4819 181.088 86.9588 181.524C86.1901 182.171 85.311 182.675 84.3638 183.01C83.2067 183.4 82.0062 183.646 80.7892 183.743C79.4917 183.879 78.2785 183.931 77.1757 184.054C76.1956 184.149 75.2254 184.327 74.2757 184.586C73.6405 184.771 73.0255 185.019 72.4398 185.326C72.0246 185.547 71.791 185.696 71.791 185.676C71.8356 185.631 71.8857 185.592 71.9402 185.56C72.0857 185.449 72.2373 185.348 72.3943 185.255C72.9731 184.916 73.5892 184.646 74.2303 184.45C75.1836 184.167 76.1608 183.972 77.1497 183.866C78.2591 183.737 79.4852 183.672 80.7632 183.542C81.9633 183.445 83.1478 183.208 84.2925 182.835C85.2189 182.514 86.0819 182.033 86.842 181.414C87.5566 180.838 88.1349 180.112 88.5353 179.286Z" fill="#FAFAFA"/>
<path d="M243.191 236.305C244.69 238.096 247.226 237.233 248.323 235.961C249.419 234.69 249.776 232.964 250.094 231.316C250.827 227.554 251.547 223.609 250.425 219.944C250.136 218.828 249.546 217.813 248.719 217.011C248.299 216.618 247.783 216.341 247.223 216.209C246.663 216.077 246.078 216.094 245.527 216.259C244.229 216.719 243.58 218.069 243.074 219.34C241.671 223.088 241.117 227.101 241.453 231.089C241.615 232.945 242.004 234.871 243.191 236.279" fill="#F27370"/>
<g opacity="0.2">
<path opacity="0.2" d="M243.191 236.305C244.69 238.096 247.226 237.233 248.323 235.961C249.419 234.69 249.776 232.964 250.094 231.316C250.827 227.554 251.547 223.609 250.425 219.944C250.136 218.828 249.546 217.813 248.719 217.011C248.299 216.618 247.783 216.341 247.223 216.209C246.663 216.077 246.078 216.094 245.527 216.259C244.229 216.719 243.58 218.069 243.074 219.34C241.671 223.088 241.117 227.101 241.453 231.089C241.615 232.945 242.004 234.871 243.191 236.279" fill="black"/>
</g>
<path d="M249.062 245.505C251.206 244.25 253.697 243.72 256.166 243.993C257.499 243.99 258.795 244.436 259.844 245.258C260.818 246.153 261.142 247.853 260.201 248.787C259.582 249.286 258.81 249.557 258.015 249.553C256.121 249.695 253.986 249.553 252.578 250.85C251.774 251.577 251.281 252.706 250.288 253.121C249.783 253.286 249.237 253.282 248.734 253.11C248.231 252.938 247.797 252.607 247.499 252.167C246.921 251.261 246.714 250.166 246.921 249.112C246.974 248.385 247.194 247.681 247.566 247.055C247.938 246.429 248.45 245.898 249.062 245.505Z" fill="#F27370"/>
<path d="M239.791 239.367C240.399 238.41 240.764 237.318 240.853 236.187C240.943 235.057 240.754 233.921 240.304 232.88C239.379 230.806 237.903 229.027 236.035 227.735C233.9 226.153 231.476 225.005 228.899 224.355C227.902 224.051 226.85 223.967 225.817 224.109C225.301 224.184 224.811 224.385 224.39 224.694C223.969 225.003 223.631 225.41 223.404 225.88C222.813 227.301 223.637 228.884 224.5 230.162C226.01 232.413 227.695 234.541 229.541 236.526C231.027 238.122 232.7 239.679 234.796 240.276C236.891 240.873 238.993 240.587 239.947 239.089" fill="#F27370"/>
<path d="M245.682 265.032C245.729 264.743 245.744 264.449 245.728 264.156C245.728 263.507 245.728 262.722 245.728 261.775C245.739 260.602 245.813 259.431 245.948 258.266C246.134 256.845 246.433 255.441 246.843 254.068C247.241 252.695 247.831 251.384 248.595 250.176C249.221 249.195 250.056 248.364 251.041 247.743C251.71 247.336 252.439 247.036 253.201 246.854C253.491 246.818 253.776 246.751 254.051 246.653C253.758 246.643 253.464 246.664 253.175 246.718C252.378 246.852 251.612 247.126 250.911 247.529C249.869 248.138 248.981 248.979 248.316 249.987C247.517 251.214 246.903 252.552 246.493 253.958C246.077 255.351 245.782 256.777 245.611 258.22C245.492 259.399 245.444 260.584 245.468 261.769C245.468 262.774 245.526 263.592 245.559 264.15C245.572 264.447 245.613 264.743 245.682 265.032Z" fill="#263238"/>
<path d="M245.683 263.19C245.702 263.054 245.702 262.916 245.683 262.781C245.683 262.482 245.624 262.1 245.579 261.639C245.488 260.64 245.358 259.2 245.254 257.416C245.021 253.848 244.891 248.904 245.001 243.448C245.112 237.992 245.468 233.068 245.877 229.513C245.974 228.624 246.072 227.82 246.176 227.119C246.279 226.418 246.344 225.822 246.429 225.316C246.513 224.809 246.552 224.472 246.597 224.174C246.613 224.04 246.613 223.905 246.597 223.771C246.549 223.897 246.514 224.028 246.493 224.161C246.429 224.459 246.351 224.835 246.26 225.29C246.15 225.783 246.052 226.386 245.942 227.087C245.832 227.787 245.702 228.592 245.598 229.481C245.016 234.113 244.687 238.773 244.612 243.442C244.502 248.911 244.67 253.861 244.969 257.435C245.105 259.219 245.274 260.679 245.41 261.652C245.481 262.113 245.533 262.495 245.579 262.794C245.599 262.929 245.634 263.062 245.683 263.19Z" fill="#263238"/>
<path d="M244.858 253.692C244.851 253.29 244.812 252.888 244.742 252.492C244.631 251.726 244.424 250.623 244.093 249.281C243.688 247.707 243.194 246.159 242.614 244.642C241.917 242.778 241.089 240.965 240.135 239.218C238.465 235.996 236.22 233.104 233.512 230.687C233.044 230.272 232.55 229.889 232.032 229.539C231.805 229.383 231.604 229.221 231.384 229.098L230.865 228.806C230.525 228.592 230.17 228.406 229.801 228.248C231.046 229.058 232.24 229.944 233.375 230.901C236.003 233.352 238.197 236.23 239.863 239.413C240.809 241.147 241.639 242.941 242.348 244.785C242.94 246.286 243.456 247.817 243.892 249.371C244.261 250.669 244.501 251.791 244.657 252.544C244.696 252.931 244.763 253.315 244.858 253.692Z" fill="#263238"/>
</svg>
