<svg width="76" height="76" viewBox="0 0 76 76" fill="none" xmlns="http://www.w3.org/2000/svg">
<path d="M25.5003 34.1251H23.6878C21.2144 34.0357 18.749 34.4556 16.4446 35.3587C14.1402 36.2618 12.046 37.6289 10.292 39.3751L9.79199 39.9584V57.2084H18.292V47.4167L19.4378 46.1251L19.9587 45.5209C22.671 42.7344 26.0478 40.684 29.7712 39.5626C27.907 38.1441 26.4368 36.2722 25.5003 34.1251Z" fill="#FAFAFA"/>
<path d="M65.7913 39.3126C64.0373 37.5664 61.9431 36.1993 59.6387 35.2962C57.3343 34.3931 54.8689 33.9732 52.3955 34.0626C51.6369 34.0647 50.8789 34.1064 50.1247 34.1876C49.1707 36.202 47.7406 37.9538 45.958 39.2917C49.933 40.3914 53.5338 42.5519 56.3747 45.5417L56.8955 46.1251L58.0205 47.4167V57.2292H66.2288V39.8959L65.7913 39.3126Z" fill="#FAFAFA"/>
<path d="M23.6247 30.0628H24.2706C23.9705 27.4862 24.4226 24.8779 25.5723 22.5526C26.722 20.2273 28.5202 18.2845 30.7497 16.9587C29.9415 15.724 28.8265 14.7203 27.5139 14.046C26.2013 13.3718 24.7361 13.0499 23.2617 13.112C21.7873 13.1742 20.3543 13.6182 19.1031 14.4005C17.8519 15.1828 16.8253 16.2767 16.1238 17.575C15.4224 18.8733 15.0701 20.3315 15.1015 21.8069C15.133 23.2822 15.5471 24.7241 16.3032 25.9914C17.0593 27.2586 18.1316 28.3078 19.415 29.0361C20.6985 29.7644 22.1491 30.1469 23.6247 30.1462V30.0628Z" fill="#FAFAFA"/>
<path d="M51.3962 28.4996C51.4215 28.9785 51.4215 29.4583 51.3962 29.9371C51.796 30.0005 52.1998 30.0353 52.6045 30.0413H53.0003C54.4695 29.963 55.8934 29.5055 57.1333 28.7135C58.3733 27.9216 59.387 26.822 60.0759 25.522C60.7647 24.2219 61.1052 22.7656 61.0641 21.2949C61.0231 19.8242 60.602 18.3892 59.8417 17.1295C59.0814 15.8699 58.008 14.8286 56.7258 14.107C55.4436 13.3854 53.9965 13.008 52.5252 13.0117C51.0539 13.0154 49.6087 13.4 48.3301 14.1281C47.0516 14.8562 45.9834 15.9029 45.2295 17.1663C47.1151 18.3974 48.6656 20.0773 49.7419 22.0554C50.8182 24.0335 51.3866 26.2477 51.3962 28.4996Z" fill="#FAFAFA"/>
<path d="M37.7295 37.833C42.8726 37.833 47.042 33.6637 47.042 28.5205C47.042 23.3774 42.8726 19.208 37.7295 19.208C32.5863 19.208 28.417 23.3774 28.417 28.5205C28.417 33.6637 32.5863 37.833 37.7295 37.833Z" fill="#FAFAFA"/>
<path d="M38.2288 42.7921C35.5081 42.6823 32.7933 43.124 30.2477 44.0906C27.7021 45.0573 25.3784 46.529 23.4163 48.4171L22.8955 49.0004V62.1879C22.9036 62.6175 22.9963 63.0412 23.1682 63.435C23.3402 63.8287 23.588 64.1847 23.8975 64.4826C24.2071 64.7806 24.5723 65.0146 24.9723 65.1714C25.3723 65.3281 25.7993 65.4046 26.2288 65.3963H50.1663C50.5959 65.4046 51.0229 65.3281 51.4229 65.1714C51.8229 65.0146 52.1881 64.7806 52.4976 64.4826C52.8072 64.1847 53.055 63.8287 53.2269 63.435C53.3989 63.0412 53.4915 62.6175 53.4997 62.1879V49.0421L52.9997 48.4171C51.0503 46.5232 48.7347 45.0474 46.1948 44.0801C43.6549 43.1129 40.9442 42.6746 38.2288 42.7921Z" fill="#FAFAFA"/>
</svg>
