<svg width="168" height="56" viewBox="0 0 168 56" fill="none" xmlns="http://www.w3.org/2000/svg">
<path d="M0 10.5C0 7.23841 0 5.60761 0.532843 4.32122C1.2433 2.60602 2.60602 1.2433 4.32122 0.532843C5.60761 0 7.23841 0 10.5 0H157.5C160.762 0 162.392 0 163.679 0.532843C165.394 1.2433 166.757 2.60602 167.467 4.32122C168 5.60761 168 7.23841 168 10.5V45.5C168 48.7616 168 50.3924 167.467 51.6788C166.757 53.394 165.394 54.7567 163.679 55.4672C162.392 56 160.762 56 157.5 56H10.5C7.23841 56 5.60761 56 4.32122 55.4672C2.60602 54.7567 1.2433 53.394 0.532843 51.6788C0 50.3924 0 48.7616 0 45.5V10.5Z" fill="#0C0D10"/>
<path d="M114.137 26.8815V30.0889H112.127V32.1923H114.137V39.3393C114.137 41.7797 115.241 42.7559 118.019 42.7559C118.507 42.7559 118.972 42.6978 119.378 42.6281V40.5479C119.03 40.5828 118.809 40.606 118.426 40.606C117.182 40.606 116.636 40.025 116.636 38.7001V32.1923H119.378V30.0889H116.636V26.8815H114.137Z" fill="white"/>
<path d="M126.454 42.9302C130.149 42.9302 132.415 40.4549 132.415 36.3527C132.415 32.2737 130.138 29.7868 126.454 29.7868C122.758 29.7868 120.481 32.2737 120.481 36.3527C120.481 40.4549 122.747 42.9302 126.454 42.9302ZM126.454 40.7106C124.281 40.7106 123.06 39.1185 123.06 36.3527C123.06 33.6101 124.281 32.0064 126.454 32.0064C128.615 32.0064 129.847 33.6101 129.847 36.3527C129.847 39.1069 128.615 40.7106 126.454 40.7106Z" fill="white"/>
<path d="M134.354 42.6862H136.853V35.2138C136.853 33.4358 138.189 32.2388 140.084 32.2388C140.525 32.2388 141.269 32.3202 141.478 32.3899V29.9262C141.211 29.8565 140.734 29.8216 140.362 29.8216C138.712 29.8216 137.306 30.7281 136.946 31.9715H136.76V30.0308H134.354V42.6862Z" fill="white"/>
<path d="M147.682 31.9134C149.53 31.9134 150.738 33.2034 150.796 35.1906H144.405C144.544 33.215 145.834 31.9134 147.682 31.9134ZM150.785 39.2696C150.32 40.2574 149.286 40.8036 147.775 40.8036C145.776 40.8036 144.486 39.3974 144.405 37.1778V37.0383H153.341V36.1667C153.341 32.1923 151.215 29.7868 147.693 29.7868C144.126 29.7868 141.86 32.355 141.86 36.3992C141.86 40.4433 144.079 42.9302 147.705 42.9302C150.599 42.9302 152.621 41.5357 153.19 39.2696H150.785Z" fill="white"/>
<path d="M97.7523 38.0128C97.945 41.1203 100.535 43.1078 104.389 43.1078C108.508 43.1078 111.086 41.024 111.086 37.6996C111.086 35.0858 109.617 33.6404 106.051 32.8093L104.136 32.3396C101.872 31.8096 100.956 31.099 100.956 29.8583C100.956 28.2925 102.378 27.2687 104.51 27.2687C106.533 27.2687 107.93 28.2684 108.183 29.8704H110.809C110.652 26.9435 108.075 24.8838 104.546 24.8838C100.751 24.8838 98.2221 26.9435 98.2221 30.039C98.2221 32.5925 99.6554 34.1102 102.799 34.8449L105.039 35.387C107.34 35.929 108.352 36.7239 108.352 38.0489C108.352 39.5906 106.762 40.7108 104.594 40.7108C102.269 40.7108 100.655 39.6629 100.426 38.0128H97.7523Z" fill="white"/>
<path d="M71.87 29.8216C70.1501 29.8216 68.6626 30.6816 67.8956 32.1226H67.7097V30.0308H65.3041V46.893H67.8027V40.7687H68.0002C68.6626 42.1051 70.092 42.8954 71.8933 42.8954C75.0891 42.8954 77.1228 40.3736 77.1228 36.3527C77.1228 32.3318 75.0891 29.8216 71.87 29.8216ZM71.1612 40.6525C69.0694 40.6525 67.7562 39.0023 67.7562 36.3643C67.7562 33.7147 69.0694 32.0645 71.1728 32.0645C73.2878 32.0645 74.5545 33.6798 74.5545 36.3527C74.5545 39.0372 73.2878 40.6525 71.1612 40.6525Z" fill="white"/>
<path d="M85.8656 29.8216C84.1456 29.8216 82.6581 30.6816 81.8911 32.1226H81.7052V30.0308H79.2996V46.893H81.7982V40.7687H81.9957C82.6581 42.1051 84.0875 42.8954 85.8888 42.8954C89.0846 42.8954 91.1183 40.3736 91.1183 36.3527C91.1183 32.3318 89.0846 29.8216 85.8656 29.8216ZM85.1567 40.6525C83.0649 40.6525 81.7517 39.0023 81.7517 36.3643C81.7517 33.7147 83.0649 32.0645 85.1683 32.0645C87.2833 32.0645 88.55 33.6798 88.55 36.3527C88.55 39.0372 87.2833 40.6525 85.1567 40.6525Z" fill="white"/>
<path d="M60.8213 42.6862H63.688L57.4126 25.3054H54.5098L48.2344 42.6862H51.0047L52.6067 38.073H59.2314L60.8213 42.6862ZM55.8227 28.4611H56.0274L58.5448 35.8085H53.2932L55.8227 28.4611Z" fill="white"/>
<path d="M49.9102 12.1958V20.5804H52.9375C55.436 20.5804 56.8828 19.0406 56.8828 16.3619C56.8828 13.7239 55.4244 12.1958 52.9375 12.1958H49.9102ZM51.2117 13.3811H52.7922C54.5295 13.3811 55.558 14.4851 55.558 16.3793C55.558 18.3026 54.547 19.395 52.7922 19.395H51.2117V13.3811Z" fill="white"/>
<path d="M61.3139 20.7024C63.1617 20.7024 64.2947 19.4647 64.2947 17.4136C64.2947 15.3741 63.1559 14.1307 61.3139 14.1307C59.4662 14.1307 58.3273 15.3741 58.3273 17.4136C58.3273 19.4647 59.4604 20.7024 61.3139 20.7024ZM61.3139 19.5926C60.2274 19.5926 59.6173 18.7965 59.6173 17.4136C59.6173 16.0423 60.2274 15.2405 61.3139 15.2405C62.3947 15.2405 63.0106 16.0423 63.0106 17.4136C63.0106 18.7907 62.3947 19.5926 61.3139 19.5926Z" fill="white"/>
<path d="M73.9437 14.2527H72.6945L71.5672 19.0813H71.4684L70.1669 14.2527H68.9699L67.6684 19.0813H67.5754L66.4423 14.2527H65.1756L66.9188 20.5804H68.2029L69.5045 15.9203H69.6033L70.9106 20.5804H72.2064L73.9437 14.2527Z" fill="white"/>
<path d="M75.3824 20.5804H76.6317V16.8791C76.6317 15.8913 77.2186 15.2753 78.1424 15.2753C79.0663 15.2753 79.5079 15.7809 79.5079 16.7977V20.5804H80.7572V16.4839C80.7572 14.979 79.9786 14.1307 78.5666 14.1307C77.6137 14.1307 76.9861 14.5548 76.6782 15.2579H76.5852V14.2527H75.3824V20.5804Z" fill="white"/>
<path d="M82.7246 20.5804H83.9739V11.7832H82.7246V20.5804Z" fill="white"/>
<path d="M88.6723 20.7024C90.5201 20.7024 91.6531 19.4647 91.6531 17.4136C91.6531 15.3741 90.5143 14.1307 88.6723 14.1307C86.8246 14.1307 85.6857 15.3741 85.6857 17.4136C85.6857 19.4647 86.8188 20.7024 88.6723 20.7024ZM88.6723 19.5926C87.5857 19.5926 86.9756 18.7965 86.9756 17.4136C86.9756 16.0423 87.5857 15.2405 88.6723 15.2405C89.7531 15.2405 90.369 16.0423 90.369 17.4136C90.369 18.7907 89.7531 19.5926 88.6723 19.5926Z" fill="white"/>
<path d="M95.3754 19.6333C94.6955 19.6333 94.2016 19.3021 94.2016 18.7326C94.2016 18.1748 94.5967 17.8785 95.4683 17.8204L97.0139 17.7216V18.2503C97.0139 19.0348 96.3167 19.6333 95.3754 19.6333ZM95.0558 20.685C95.8867 20.685 96.5781 20.3247 96.9558 19.6914H97.0546V20.5804H98.2574V16.2573C98.2574 14.9209 97.3626 14.1307 95.7763 14.1307C94.3411 14.1307 93.3184 14.8279 93.1906 15.9145H94.3992C94.5386 15.4671 95.0209 15.2114 95.7182 15.2114C96.5723 15.2114 97.0139 15.5891 97.0139 16.2573V16.8035L95.2998 16.9023C93.7949 16.9953 92.9466 17.6519 92.9466 18.7907C92.9466 19.947 93.8356 20.685 95.0558 20.685Z" fill="white"/>
<path d="M102.497 20.685C103.368 20.685 104.106 20.2724 104.484 19.581H104.583V20.5804H105.78V11.7832H104.53V15.2579H104.437C104.095 14.5606 103.363 14.1481 102.497 14.1481C100.899 14.1481 99.8704 15.4148 99.8704 17.4136C99.8704 19.4183 100.887 20.685 102.497 20.685ZM102.851 15.2695C103.897 15.2695 104.554 16.1004 104.554 17.4194C104.554 18.7442 103.903 19.5635 102.851 19.5635C101.794 19.5635 101.16 18.7559 101.16 17.4136C101.16 16.083 101.8 15.2695 102.851 15.2695Z" fill="white"/>
<path d="M113.881 20.7024C115.729 20.7024 116.862 19.4647 116.862 17.4136C116.862 15.3741 115.723 14.1307 113.881 14.1307C112.033 14.1307 110.894 15.3741 110.894 17.4136C110.894 19.4647 112.027 20.7024 113.881 20.7024ZM113.881 19.5926C112.794 19.5926 112.184 18.7965 112.184 17.4136C112.184 16.0423 112.794 15.2405 113.881 15.2405C114.962 15.2405 115.577 16.0423 115.577 17.4136C115.577 18.7907 114.962 19.5926 113.881 19.5926Z" fill="white"/>
<path d="M118.515 20.5804H119.765V16.8791C119.765 15.8913 120.351 15.2753 121.275 15.2753C122.199 15.2753 122.641 15.7809 122.641 16.7977V20.5804H123.89V16.4839C123.89 14.979 123.111 14.1307 121.699 14.1307C120.747 14.1307 120.119 14.5548 119.811 15.2579H119.718V14.2527H118.515V20.5804Z" fill="white"/>
<path d="M129.644 12.678V14.2817H128.638V15.3334H129.644V18.9069C129.644 20.1271 130.196 20.6152 131.584 20.6152C131.828 20.6152 132.061 20.5862 132.264 20.5513V19.5112C132.09 19.5287 131.979 19.5403 131.788 19.5403C131.166 19.5403 130.893 19.2498 130.893 18.5874V15.3334H132.264V14.2817H130.893V12.678H129.644Z" fill="white"/>
<path d="M133.941 20.5804H135.19V16.8849C135.19 15.9261 135.76 15.2812 136.782 15.2812C137.666 15.2812 138.136 15.7925 138.136 16.8035V20.5804H139.386V16.4956C139.386 14.9906 138.555 14.1365 137.207 14.1365C136.254 14.1365 135.586 14.5606 135.278 15.2695H135.179V11.7832H133.941V20.5804Z" fill="white"/>
<path d="M143.892 15.194C144.816 15.194 145.42 15.839 145.449 16.8326H142.254C142.323 15.8448 142.968 15.194 143.892 15.194ZM145.444 18.8721C145.211 19.366 144.694 19.6391 143.939 19.6391C142.939 19.6391 142.294 18.936 142.254 17.8262V17.7564H146.722V17.3207C146.722 15.3334 145.659 14.1307 143.898 14.1307C142.114 14.1307 140.981 15.4148 140.981 17.4369C140.981 19.4589 142.091 20.7024 143.904 20.7024C145.351 20.7024 146.362 20.0051 146.646 18.8721H145.444Z" fill="white"/>
<path d="M34.6772 28.4215C34.7075 26.0681 35.9714 23.8413 37.9764 22.6086C36.7115 20.8022 34.5929 19.6568 32.3887 19.5879C30.0378 19.3411 27.7587 20.9946 26.5607 20.9946C25.3395 20.9946 23.495 19.6124 21.5088 19.6532C18.9198 19.7369 16.5063 21.2088 15.2467 23.4722C12.5391 28.16 14.5587 35.0495 17.1524 38.8387C18.45 40.6942 19.9666 42.7669 21.951 42.6934C23.8929 42.6128 24.6182 41.4551 26.9622 41.4551C29.2845 41.4551 29.9649 42.6934 31.9896 42.6466C34.0733 42.6128 35.3862 40.7829 36.6383 38.9098C37.5707 37.5877 38.2881 36.1265 38.7641 34.5803C36.3153 33.5446 34.68 31.0803 34.6772 28.4215Z" fill="white"/>
<path d="M30.8528 17.0959C31.989 15.732 32.5487 13.9789 32.4132 12.209C30.6774 12.3913 29.074 13.2209 27.9226 14.5324C26.7966 15.8139 26.2106 17.5361 26.3214 19.2384C28.0578 19.2563 29.7648 18.4492 30.8528 17.0959Z" fill="white"/>
<path d="M4.32122 55.4672L4.7039 54.5433L4.32122 55.4672ZM0.532843 51.6788L-0.391036 52.0615L0.532843 51.6788ZM167.467 51.6788L168.391 52.0615L167.467 51.6788ZM163.679 55.4672L163.296 54.5433L163.679 55.4672ZM163.679 0.532843L164.061 -0.391036L163.679 0.532843ZM167.467 4.32122L166.543 4.7039L167.467 4.32122ZM10.5 1H157.5V-1H10.5V1ZM167 10.5V45.5H169V10.5H167ZM157.5 55H10.5V57H157.5V55ZM1 45.5V10.5H-1V45.5H1ZM10.5 55C8.85552 55 7.67225 54.9995 6.73798 54.9357C5.8127 54.8726 5.20494 54.7508 4.7039 54.5433L3.93853 56.391C4.72389 56.7163 5.57473 56.861 6.60184 56.9311C7.61997 57.0005 8.88289 57 10.5 57V55ZM-1 45.5C-1 47.1171 -1.00054 48.38 -0.931075 49.3982C-0.860996 50.4253 -0.716341 51.2761 -0.391036 52.0615L1.45672 51.2961C1.24918 50.7951 1.12742 50.1873 1.06429 49.262C1.00054 48.3278 1 47.1445 1 45.5H-1ZM4.7039 54.5433C3.23373 53.9343 2.06569 52.7663 1.45672 51.2961L-0.391036 52.0615C0.420915 54.0217 1.97831 55.5791 3.93853 56.391L4.7039 54.5433ZM167 45.5C167 47.1445 166.999 48.3278 166.936 49.262C166.873 50.1873 166.751 50.7951 166.543 51.2961L168.391 52.0615C168.716 51.2761 168.861 50.4253 168.931 49.3982C169.001 48.38 169 47.1171 169 45.5H167ZM157.5 57C159.117 57 160.38 57.0005 161.398 56.9311C162.425 56.861 163.276 56.7163 164.061 56.391L163.296 54.5433C162.795 54.7508 162.187 54.8726 161.262 54.9357C160.328 54.9995 159.144 55 157.5 55V57ZM166.543 51.2961C165.934 52.7663 164.766 53.9343 163.296 54.5433L164.061 56.391C166.022 55.5791 167.579 54.0217 168.391 52.0615L166.543 51.2961ZM157.5 1C159.144 1 160.328 1.00054 161.262 1.06429C162.187 1.12742 162.795 1.24918 163.296 1.45672L164.061 -0.391036C163.276 -0.716341 162.425 -0.860996 161.398 -0.931075C160.38 -1.00054 159.117 -1 157.5 -1V1ZM169 10.5C169 8.88289 169.001 7.61997 168.931 6.60184C168.861 5.57473 168.716 4.72389 168.391 3.93853L166.543 4.7039C166.751 5.20494 166.873 5.8127 166.936 6.73798C166.999 7.67225 167 8.85552 167 10.5H169ZM163.296 1.45672C164.766 2.06569 165.934 3.23373 166.543 4.7039L168.391 3.93853C167.579 1.97831 166.022 0.420915 164.061 -0.391036L163.296 1.45672ZM10.5 -1C8.88289 -1 7.61997 -1.00054 6.60184 -0.931075C5.57473 -0.860996 4.72389 -0.716341 3.93853 -0.391036L4.7039 1.45672C5.20494 1.24918 5.8127 1.12742 6.73798 1.06429C7.67225 1.00054 8.85552 1 10.5 1V-1ZM1 10.5C1 8.85552 1.00054 7.67225 1.06429 6.73798C1.12742 5.8127 1.24918 5.20494 1.45672 4.7039L-0.391036 3.93853C-0.716341 4.72389 -0.860996 5.57473 -0.931075 6.60184C-1.00054 7.61997 -1 8.88289 -1 10.5H1ZM3.93853 -0.391036C1.97831 0.420915 0.420915 1.97831 -0.391036 3.93853L1.45672 4.7039C2.06569 3.23373 3.23373 2.06569 4.7039 1.45672L3.93853 -0.391036Z" fill="#A6A6A6"/>
</svg>
