<svg width="40" height="40" viewBox="0 0 40 40" fill="none" xmlns="http://www.w3.org/2000/svg">
<path d="M0 20C0 8.96 8.96 0 20 0C31.04 0 40 8.96 40 20C40 31.04 31.04 40 20 40C8.96 40 0 31.04 0 20Z" fill="#B3B3B3"/>
<path d="M19.5 6.25C22.82 6.25 25.5 8.93 25.5 12.25C25.5 15.57 22.82 18.25 19.5 18.25C16.18 18.25 13.5 15.57 13.5 12.25C13.5 8.93 16.18 6.25 19.5 6.25ZM19.5 34.65C14.5 34.65 10.08 32.09 7.5 28.21C7.56 24.23 15.5 22.05 19.5 22.05C23.48 22.05 31.44 24.23 31.5 28.21C28.92 32.09 24.5 34.65 19.5 34.65Z" fill="white"/>
</svg>
