<svg width="16" height="16" viewBox="0 0 16 16" fill="none" xmlns="http://www.w3.org/2000/svg">
<path d="M2.63265 3H13.3702C13.4671 3.00003 13.562 3.02827 13.6432 3.08127C13.7245 3.13427 13.7885 3.20975 13.8276 3.29852C13.8667 3.38728 13.8791 3.48549 13.8634 3.58119C13.8476 3.67689 13.8044 3.76594 13.7389 3.8375L9.63265 8.35625C9.54719 8.44773 9.5002 8.56857 9.5014 8.69375V12.2312C9.50217 12.3143 9.48195 12.3963 9.44262 12.4695C9.40328 12.5427 9.34611 12.6048 9.2764 12.65L7.2764 13.9812C7.20138 14.0307 7.11443 14.059 7.0247 14.0631C6.93496 14.0673 6.84575 14.0473 6.76645 14.0051C6.68715 13.9629 6.62069 13.9001 6.57405 13.8233C6.52741 13.7465 6.50231 13.6586 6.5014 13.5688V8.69375C6.50261 8.56857 6.45561 8.44773 6.37015 8.35625L2.2639 3.8375C2.19844 3.76594 2.1552 3.67689 2.13945 3.58119C2.1237 3.48549 2.13612 3.38728 2.17521 3.29852C2.21429 3.20975 2.27834 3.13427 2.35956 3.08127C2.44078 3.02827 2.53567 3.00003 2.63265 3V3Z" stroke="#F27370" stroke-linecap="round" stroke-linejoin="round"/>
</svg>
