<svg width="12" height="13" viewBox="0 0 12 13" fill="none" xmlns="http://www.w3.org/2000/svg">
<path d="M6 1.5C4.67915 1.51684 3.41715 2.04904 2.48309 2.98309C1.54904 3.91715 1.01684 5.17915 1 6.5C1.00617 7.26946 1.18986 8.02711 1.53676 8.71396C1.88365 9.40081 2.3844 9.99833 3 10.46V10.5H3.05C3.89659 11.1487 4.93342 11.5003 6 11.5003C7.06658 11.5003 8.10341 11.1487 8.95 10.5H9V10.46C9.6156 9.99833 10.1163 9.40081 10.4632 8.71396C10.8101 8.02711 10.9938 7.26946 11 6.5C10.9832 5.17915 10.451 3.91715 9.51691 2.98309C8.58285 2.04904 7.32085 1.51684 6 1.5ZM4.035 9.965C4.10799 9.63072 4.29308 9.33144 4.55954 9.11681C4.82601 8.90219 5.15785 8.78511 5.5 8.785H6.5C6.84215 8.78511 7.17399 8.90219 7.44046 9.11681C7.70692 9.33144 7.89201 9.63072 7.965 9.965C7.36943 10.3154 6.691 10.5002 6 10.5002C5.309 10.5002 4.63057 10.3154 4.035 9.965ZM8.805 9.32C8.61481 8.86547 8.29456 8.47728 7.88446 8.20418C7.47436 7.93108 6.99271 7.78525 6.5 7.785H5.5C5.00729 7.78525 4.52564 7.93108 4.11554 8.20418C3.70544 8.47728 3.38519 8.86547 3.195 9.32C2.82033 8.95149 2.52195 8.51277 2.31691 8.0289C2.11186 7.54503 2.00418 7.0255 2 6.5C2.01297 5.44316 2.43856 4.43327 3.18591 3.68591C3.93327 2.93856 4.94316 2.51297 6 2.5C7.05684 2.51297 8.06673 2.93856 8.81409 3.68591C9.56144 4.43327 9.98703 5.44316 10 6.5C9.99582 7.0255 9.88814 7.54503 9.68309 8.0289C9.47805 8.51277 9.17967 8.95149 8.805 9.32Z" fill="#707070"/>
<path d="M5.99955 3.49955C5.73523 3.4934 5.4724 3.54092 5.22696 3.63925C4.98153 3.73758 4.75859 3.88467 4.57163 4.07163C4.38467 4.25859 4.23758 4.48153 4.13925 4.72696C4.04092 4.9724 3.9934 5.23523 3.99955 5.49955C3.9934 5.76388 4.04092 6.02671 4.13925 6.27215C4.23758 6.51758 4.38467 6.74052 4.57163 6.92748C4.75859 7.11444 4.98153 7.26153 5.22696 7.35986C5.4724 7.45819 5.73523 7.50571 5.99955 7.49955C6.26388 7.50571 6.52671 7.45819 6.77215 7.35986C7.01758 7.26153 7.24052 7.11444 7.42748 6.92748C7.61444 6.74052 7.76153 6.51758 7.85986 6.27215C7.95819 6.02671 8.00571 5.76388 7.99955 5.49955C8.00571 5.23523 7.95819 4.9724 7.85986 4.72696C7.76153 4.48153 7.61444 4.25859 7.42748 4.07163C7.24052 3.88467 7.01758 3.73758 6.77215 3.63925C6.52671 3.54092 6.26388 3.4934 5.99955 3.49955ZM5.99955 6.49955C5.86653 6.50598 5.73363 6.48452 5.60939 6.43654C5.48515 6.38856 5.37233 6.31513 5.27815 6.22095C5.18398 6.12678 5.11055 6.01395 5.06257 5.88972C5.01459 5.76548 4.99312 5.63258 4.99955 5.49955C4.99312 5.36653 5.01459 5.23363 5.06257 5.10939C5.11055 4.98515 5.18398 4.87233 5.27815 4.77815C5.37233 4.68398 5.48515 4.61055 5.60939 4.56257C5.73363 4.51459 5.86653 4.49312 5.99955 4.49955C6.13258 4.49312 6.26548 4.51459 6.38972 4.56257C6.51395 4.61055 6.62678 4.68398 6.72095 4.77815C6.81513 4.87233 6.88856 4.98515 6.93654 5.10939C6.98452 5.23363 7.00598 5.36653 6.99955 5.49955C7.00598 5.63258 6.98452 5.76548 6.93654 5.88972C6.88856 6.01395 6.81513 6.12678 6.72095 6.22095C6.62678 6.31513 6.51395 6.38856 6.38972 6.43654C6.26548 6.48452 6.13258 6.50598 5.99955 6.49955Z" fill="#707070"/>
</svg>
