<svg width="12" height="11" viewBox="0 0 12 11" fill="none" xmlns="http://www.w3.org/2000/svg">
<path d="M10.8 10.3002H1.2C0.88174 10.3002 0.576515 10.1738 0.351472 9.94872C0.126428 9.72368 0 9.41846 0 9.1002V1.848C0.0134596 1.53887 0.145805 1.24689 0.369407 1.03302C0.593008 0.819141 0.890581 0.699903 1.2 0.700196H10.8C11.1183 0.700196 11.4235 0.826624 11.6485 1.05167C11.8736 1.27671 12 1.58194 12 1.9002V9.1002C12 9.41846 11.8736 9.72368 11.6485 9.94872C11.4235 10.1738 11.1183 10.3002 10.8 10.3002ZM1.2 3.021V9.1002H10.8V3.021L6 6.2202L1.2 3.021ZM1.68 1.9002L6 4.7802L10.32 1.9002H1.68Z" fill="#707070"/>
</svg>
