<svg width="12" height="13" viewBox="0 0 12 13" fill="none" xmlns="http://www.w3.org/2000/svg">
<path d="M9 4.5H10C10.1326 4.5 10.2598 4.55268 10.3536 4.64645C10.4473 4.74021 10.5 4.86739 10.5 5V11C10.5 11.1326 10.4473 11.2598 10.3536 11.3536C10.2598 11.4473 10.1326 11.5 10 11.5H2C1.86739 11.5 1.74021 11.4473 1.64645 11.3536C1.55268 11.2598 1.5 11.1326 1.5 11V5C1.5 4.86739 1.55268 4.74021 1.64645 4.64645C1.74021 4.55268 1.86739 4.5 2 4.5H3V4C3 3.20435 3.31607 2.44129 3.87868 1.87868C4.44129 1.31607 5.20435 1 6 1C6.79565 1 7.55871 1.31607 8.12132 1.87868C8.68393 2.44129 9 3.20435 9 4V4.5ZM2.5 5.5V10.5H9.5V5.5H2.5ZM5.5 7.5H6.5V8.5H5.5V7.5ZM3.5 7.5H4.5V8.5H3.5V7.5ZM7.5 7.5H8.5V8.5H7.5V7.5ZM8 4.5V4C8 3.46957 7.78929 2.96086 7.41421 2.58579C7.03914 2.21071 6.53043 2 6 2C5.46957 2 4.96086 2.21071 4.58579 2.58579C4.21071 2.96086 4 3.46957 4 4V4.5H8Z" fill="#707070"/>
</svg>
