<svg width="12" height="13" viewBox="0 0 12 13" fill="none" xmlns="http://www.w3.org/2000/svg">
<path d="M5.99991 2.375L5.88253 2.48L1.60491 6.80487L1.34766 7.06287L1.60528 7.33287L5.16778 10.8954L5.43778 11.153L5.69653 10.8954L10.0203 6.61775L10.1249 6.5V2.375H5.99991ZM6.31641 3.125H9.37491V6.1835L5.43741 10.0977L2.40216 7.0625L6.31641 3.125ZM8.24991 3.875C8.15045 3.875 8.05507 3.91451 7.98474 3.98483C7.91441 4.05516 7.87491 4.15054 7.87491 4.25C7.87491 4.34946 7.91441 4.44484 7.98474 4.51516C8.05507 4.58549 8.15045 4.625 8.24991 4.625C8.34936 4.625 8.44475 4.58549 8.51507 4.51516C8.5854 4.44484 8.62491 4.34946 8.62491 4.25C8.62491 4.15054 8.5854 4.05516 8.51507 3.98483C8.44475 3.91451 8.34936 3.875 8.24991 3.875Z" fill="#585858"/>
</svg>
