<svg width="12" height="13" viewBox="0 0 12 13" fill="none" xmlns="http://www.w3.org/2000/svg">
<path d="M3.7 4H2.3C2.22044 4 2.14413 4.03161 2.08787 4.08787C2.03161 4.14413 2 4.22044 2 4.3V8.7C2 8.7394 2.00776 8.77841 2.02284 8.81481C2.03791 8.8512 2.06001 8.88427 2.08787 8.91213C2.11573 8.93999 2.1488 8.96209 2.18519 8.97716C2.22159 8.99224 2.2606 9 2.3 9H3.7C3.7394 9 3.77841 8.99224 3.81481 8.97716C3.8512 8.96209 3.88427 8.93999 3.91213 8.91213C3.93999 8.88427 3.96209 8.8512 3.97716 8.81481C3.99224 8.77841 4 8.7394 4 8.7V4.3C4 4.22044 3.96839 4.14413 3.91213 4.08787C3.85587 4.03161 3.77956 4 3.7 4V4ZM9.7 4H8.3C8.22044 4 8.14413 4.03161 8.08787 4.08787C8.03161 4.14413 8 4.22044 8 4.3V8.7C8 8.7394 8.00776 8.77841 8.02284 8.81481C8.03791 8.8512 8.06001 8.88427 8.08787 8.91213C8.11573 8.93999 8.1488 8.96209 8.18519 8.97716C8.22159 8.99224 8.2606 9 8.3 9H9.7C9.7394 9 9.77841 8.99224 9.81481 8.97716C9.8512 8.96209 9.88427 8.93999 9.91213 8.91213C9.93999 8.88427 9.96209 8.8512 9.97716 8.81481C9.99224 8.77841 10 8.7394 10 8.7V4.3C10 4.22044 9.96839 4.14413 9.91213 4.08787C9.85587 4.03161 9.77956 4 9.7 4V4Z" stroke="#585858" stroke-width="0.5" stroke-linecap="round" stroke-linejoin="round"/>
<path d="M4 6.5H8M0.5 7.7V5.3C0.5 5.22044 0.531607 5.14413 0.587868 5.08787C0.644129 5.03161 0.720435 5 0.8 5H1.7C1.77956 5 1.85587 5.03161 1.91213 5.08787C1.96839 5.14413 2 5.22044 2 5.3V7.7C2 7.77956 1.96839 7.85587 1.91213 7.91213C1.85587 7.96839 1.77956 8 1.7 8H0.8C0.720435 8 0.644129 7.96839 0.587868 7.91213C0.531607 7.85587 0.5 7.77956 0.5 7.7V7.7ZM11.5 7.7V5.3C11.5 5.22044 11.4684 5.14413 11.4121 5.08787C11.3559 5.03161 11.2796 5 11.2 5H10.3C10.2204 5 10.1441 5.03161 10.0879 5.08787C10.0316 5.14413 10 5.22044 10 5.3V7.7C10 7.77956 10.0316 7.85587 10.0879 7.91213C10.1441 7.96839 10.2204 8 10.3 8H11.2C11.2796 8 11.3559 7.96839 11.4121 7.91213C11.4684 7.85587 11.5 7.77956 11.5 7.7V7.7Z" stroke="#585858" stroke-width="0.5" stroke-linecap="round" stroke-linejoin="round"/>
</svg>
