<svg width="12" height="13" viewBox="0 0 12 13" fill="none" xmlns="http://www.w3.org/2000/svg">
<path d="M10.3125 2.65625H8.34375V1.90625C8.34375 1.85469 8.30156 1.8125 8.25 1.8125H7.59375C7.54219 1.8125 7.5 1.85469 7.5 1.90625V2.65625H4.5V1.90625C4.5 1.85469 4.45781 1.8125 4.40625 1.8125H3.75C3.69844 1.8125 3.65625 1.85469 3.65625 1.90625V2.65625H1.6875C1.48008 2.65625 1.3125 2.82383 1.3125 3.03125V10.8125C1.3125 11.0199 1.48008 11.1875 1.6875 11.1875H10.3125C10.5199 11.1875 10.6875 11.0199 10.6875 10.8125V3.03125C10.6875 2.82383 10.5199 2.65625 10.3125 2.65625ZM9.84375 10.3438H2.15625V5.89062H9.84375V10.3438ZM2.15625 5.09375V3.5H3.65625V4.0625C3.65625 4.11406 3.69844 4.15625 3.75 4.15625H4.40625C4.45781 4.15625 4.5 4.11406 4.5 4.0625V3.5H7.5V4.0625C7.5 4.11406 7.54219 4.15625 7.59375 4.15625H8.25C8.30156 4.15625 8.34375 4.11406 8.34375 4.0625V3.5H9.84375V5.09375H2.15625Z" fill="#585858"/>
</svg>
