<svg width="12" height="13" viewBox="0 0 12 13" fill="none" xmlns="http://www.w3.org/2000/svg">
<path d="M5.27712 3.61953L3.58562 1.66703C3.39062 1.44203 3.03312 1.44303 2.80662 1.67003L1.41562 3.06353C1.00162 3.47803 0.883116 4.09353 1.12262 4.58703C2.55343 7.54951 4.94264 9.94207 7.90312 11.377C8.39612 11.6165 9.01112 11.498 9.42512 11.0835L10.8291 9.67703C11.0566 9.44953 11.0571 9.09003 10.8301 8.89503L8.87012 7.21253C8.66512 7.03653 8.34662 7.05953 8.14112 7.26553L7.45912 7.94853C7.4242 7.98512 7.37824 8.00924 7.32829 8.01719C7.27834 8.02514 7.22717 8.01647 7.18262 7.99253C6.06784 7.35058 5.14311 6.42464 4.50262 5.30903C4.47863 5.2644 4.46994 5.21314 4.47789 5.1631C4.48584 5.11307 4.50998 5.06702 4.54662 5.03203L5.22662 4.35153C5.43262 4.14453 5.45512 3.82453 5.27712 3.61903V3.61953Z" stroke="#707070" stroke-linecap="round" stroke-linejoin="round"/>
</svg>
