<svg width="189" height="56" viewBox="0 0 189 56" fill="none" xmlns="http://www.w3.org/2000/svg">
<path d="M0 5C0 2.23858 2.23858 0 5 0H184C186.761 0 189 2.23858 189 5V51C189 53.7614 186.761 56 184 56H5C2.23858 56 0 53.7614 0 51V5Z" fill="black"/>
<path d="M95.3886 30.4518C92.0958 30.4518 89.412 32.9564 89.412 36.406C89.412 39.8346 92.0958 42.3602 95.3886 42.3602C98.6828 42.3602 101.367 39.8346 101.367 36.406C101.365 32.9564 98.6814 30.4518 95.3886 30.4518ZM95.3886 40.0166C93.584 40.0166 92.0286 38.5284 92.0286 36.4074C92.0286 34.264 93.5854 32.7982 95.3886 32.7982C97.1932 32.7982 98.7486 34.264 98.7486 36.4074C98.7486 38.527 97.1932 40.0166 95.3886 40.0166ZM82.349 30.4518C79.0562 30.4518 76.3724 32.9564 76.3724 36.406C76.3724 39.8346 79.0562 42.3602 82.349 42.3602C85.6432 42.3602 88.327 39.8346 88.327 36.406C88.327 32.9564 85.6432 30.4518 82.349 30.4518ZM82.349 40.0166C80.5444 40.0166 78.989 38.5284 78.989 36.4074C78.989 34.264 80.5458 32.7982 82.349 32.7982C84.1536 32.7982 85.709 34.264 85.709 36.4074C85.7104 38.527 84.1536 40.0166 82.349 40.0166ZM66.8398 32.2802V34.8058H72.885C72.7044 36.2268 72.2312 37.2642 71.5088 37.9852C70.6296 38.8644 69.2534 39.8346 66.8398 39.8346C63.1186 39.8346 60.2094 36.8344 60.2094 33.1132C60.2094 29.392 63.1186 26.3918 66.8398 26.3918C68.8474 26.3918 70.3132 27.1814 71.3954 28.1964L73.1776 26.4142C71.6656 24.9708 69.6594 23.8662 66.8398 23.8662C61.7424 23.8662 57.457 28.0158 57.457 33.1132C57.457 38.2106 61.7424 42.3602 66.8398 42.3602C69.5908 42.3602 71.667 41.4572 73.2896 39.766C74.9584 38.0972 75.4778 35.7508 75.4778 33.8566C75.4778 33.2714 75.433 32.7296 75.342 32.2788H66.8398V32.2802ZM130.271 34.2416C129.775 32.9116 128.263 30.4518 125.174 30.4518C122.106 30.4518 119.557 32.8654 119.557 36.406C119.557 39.7436 122.084 42.3602 125.466 42.3602C128.195 42.3602 129.774 40.6914 130.429 39.7212L128.399 38.3674C127.723 39.36 126.798 40.0138 125.466 40.0138C124.136 40.0138 123.188 39.4048 122.579 38.2092L130.541 34.9164L130.271 34.2416ZM122.151 36.2268C122.084 33.9252 123.933 32.7534 125.265 32.7534C126.302 32.7534 127.181 33.2728 127.475 34.0162L122.151 36.2268ZM115.679 42.0004H118.294V24.499H115.679V42.0004ZM111.392 31.7832H111.302C110.716 31.0832 109.587 30.4518 108.168 30.4518C105.19 30.4518 102.461 33.0684 102.461 36.4298C102.461 39.7674 105.19 42.3616 108.168 42.3616C109.589 42.3616 110.716 41.7302 111.302 41.0092H111.392V41.866C111.392 44.1438 110.174 45.3618 108.213 45.3618C106.611 45.3618 105.618 44.2124 105.212 43.2422L102.935 44.19C103.588 45.7678 105.324 47.7082 108.213 47.7082C111.28 47.7082 113.874 45.9036 113.874 41.5048V30.8144H111.393V31.7832H111.392ZM108.393 40.0166C106.589 40.0166 105.078 38.5046 105.078 36.4298C105.078 34.3312 106.589 32.7982 108.393 32.7982C110.174 32.7982 111.573 34.3312 111.573 36.4298C111.573 38.5046 110.174 40.0166 108.393 40.0166ZM142.527 24.499H136.267V42.0004H138.878V35.37H142.525C145.42 35.37 148.268 33.2742 148.268 29.9352C148.268 26.5962 145.422 24.499 142.527 24.499ZM142.594 32.934H138.878V26.935H142.594C144.547 26.935 145.656 28.552 145.656 29.9352C145.656 31.2904 144.547 32.934 142.594 32.934ZM158.739 30.421C156.847 30.421 154.889 31.254 154.078 33.1006L156.396 34.068C156.892 33.1006 157.816 32.7842 158.783 32.7842C160.134 32.7842 161.508 33.5948 161.53 35.0354V35.216C161.057 34.9458 160.043 34.5412 158.806 34.5412C156.307 34.5412 153.762 35.9146 153.762 38.4808C153.762 40.823 155.811 42.3308 158.107 42.3308C159.863 42.3308 160.832 41.5426 161.439 40.6186H161.529V41.9696H164.052V35.2594C164.053 32.1542 161.732 30.421 158.739 30.421ZM158.422 40.0124C157.568 40.0124 156.374 39.584 156.374 38.5256C156.374 37.1746 157.861 36.6566 159.145 36.6566C160.291 36.6566 160.833 36.9044 161.53 37.2418C161.327 38.8644 159.931 40.0124 158.422 40.0124ZM173.238 30.8032L170.244 38.3912H170.154L167.046 30.8032H164.232L168.893 41.4082L166.236 47.3078H168.96L176.143 30.8032H173.238ZM149.71 42.0004H152.321V24.499H149.71V42.0004Z" fill="white"/>
<path d="M66.3869 14.3405C66.3869 15.5137 66.0397 16.4475 65.3439 17.1447C64.5543 17.9735 63.5239 18.3879 62.2583 18.3879C61.0459 18.3879 60.0141 17.9679 59.1671 17.1279C58.3187 16.2865 57.8945 15.2449 57.8945 14.0017C57.8945 12.7571 58.3187 11.7155 59.1671 10.8755C60.0141 10.0341 61.0459 9.61406 62.2583 9.61406C62.8603 9.61406 63.4357 9.73166 63.9817 9.96546C64.5291 10.2007 64.9673 10.5129 65.2949 10.9035L64.5571 11.6427C64.0013 10.9777 63.2355 10.6459 62.2569 10.6459C61.3721 10.6459 60.6077 10.9567 59.9623 11.5783C59.3169 12.1999 58.9949 13.0077 58.9949 14.0003C58.9949 14.9929 59.3169 15.8007 59.9623 16.4223C60.6077 17.0439 61.3721 17.3547 62.2569 17.3547C63.1949 17.3547 63.9775 17.0425 64.6033 16.4167C65.0093 16.0093 65.2445 15.4423 65.3075 14.7157H62.2569V13.7063H66.3267C66.3687 13.9261 66.3869 14.1375 66.3869 14.3405Z" fill="white"/>
<path d="M72.8411 10.8321H69.0163V13.4949H72.4659V14.5043H69.0163V17.1671H72.8411V18.2003H67.9369V9.80034H72.8411V10.8321Z" fill="white"/>
<path d="M77.3923 18.2003H76.3129V10.8321H73.9665V9.80034H79.7387V10.8321H77.3923V18.2003Z" fill="white"/>
<path d="M83.9148 18.2003V9.80034H84.9942V18.2003H83.9148Z" fill="white"/>
<path d="M89.7811 18.2003H88.7017V10.8321H86.3553V9.80034H92.1275V10.8321H89.7811V18.2003Z" fill="white"/>
<path d="M103.054 17.1153C102.228 17.9637 101.202 18.3879 99.9741 18.3879C98.7463 18.3879 97.7202 17.9637 96.8956 17.1153C96.0696 16.2669 95.6579 15.2281 95.6579 14.0003C95.6579 12.7725 96.0696 11.7337 96.8956 10.8853C97.7202 10.0369 98.7463 9.61133 99.9741 9.61133C101.195 9.61133 102.22 10.0383 103.049 10.8909C103.877 11.7435 104.292 12.7795 104.292 14.0003C104.292 15.2281 103.879 16.2669 103.054 17.1153ZM97.6922 16.4111C98.3138 17.0411 99.0739 17.3547 99.9741 17.3547C100.874 17.3547 101.636 17.0397 102.256 16.4111C102.878 15.7811 103.19 14.9775 103.19 14.0003C103.19 13.0231 102.878 12.2195 102.256 11.5895C101.636 10.9595 100.874 10.6459 99.9741 10.6459C99.0739 10.6459 98.3138 10.9609 97.6922 11.5895C97.072 12.2195 96.7598 13.0231 96.7598 14.0003C96.7598 14.9775 97.072 15.7811 97.6922 16.4111Z" fill="white"/>
<path d="M105.807 18.2003V9.80034H107.12L111.202 16.3341H111.248L111.202 14.7157V9.80034H112.282V18.2003H111.155L106.883 11.3487H106.837L106.883 12.9671V18.2003H105.807Z" fill="white"/>
<path d="M66.3869 14.3405C66.3869 15.5137 66.0397 16.4475 65.3439 17.1447C64.5543 17.9735 63.5239 18.3879 62.2583 18.3879C61.0459 18.3879 60.0141 17.9679 59.1671 17.1279C58.3187 16.2865 57.8945 15.2449 57.8945 14.0017C57.8945 12.7571 58.3187 11.7155 59.1671 10.8755C60.0141 10.0341 61.0459 9.61406 62.2583 9.61406C62.8603 9.61406 63.4357 9.73166 63.9817 9.96546C64.5291 10.2007 64.9673 10.5129 65.2949 10.9035L64.5571 11.6427C64.0013 10.9777 63.2355 10.6459 62.2569 10.6459C61.3721 10.6459 60.6077 10.9567 59.9623 11.5783C59.3169 12.1999 58.9949 13.0077 58.9949 14.0003C58.9949 14.9929 59.3169 15.8007 59.9623 16.4223C60.6077 17.0439 61.3721 17.3547 62.2569 17.3547C63.1949 17.3547 63.9775 17.0425 64.6033 16.4167C65.0093 16.0093 65.2445 15.4423 65.3075 14.7157H62.2569V13.7063H66.3267C66.3687 13.9261 66.3869 14.1375 66.3869 14.3405Z" stroke="white" stroke-width="0.2" stroke-miterlimit="10"/>
<path d="M72.8411 10.8321H69.0163V13.4949H72.4659V14.5043H69.0163V17.1671H72.8411V18.2003H67.9369V9.80034H72.8411V10.8321Z" stroke="white" stroke-width="0.2" stroke-miterlimit="10"/>
<path d="M77.3923 18.2003H76.3129V10.8321H73.9665V9.80034H79.7387V10.8321H77.3923V18.2003Z" stroke="white" stroke-width="0.2" stroke-miterlimit="10"/>
<path d="M83.9148 18.2003V9.80034H84.9942V18.2003H83.9148Z" stroke="white" stroke-width="0.2" stroke-miterlimit="10"/>
<path d="M89.7811 18.2003H88.7017V10.8321H86.3553V9.80034H92.1275V10.8321H89.7811V18.2003Z" stroke="white" stroke-width="0.2" stroke-miterlimit="10"/>
<path d="M103.054 17.1153C102.228 17.9637 101.202 18.3879 99.9741 18.3879C98.7463 18.3879 97.7202 17.9637 96.8956 17.1153C96.0696 16.2669 95.6579 15.2281 95.6579 14.0003C95.6579 12.7725 96.0696 11.7337 96.8956 10.8853C97.7202 10.0369 98.7463 9.61133 99.9741 9.61133C101.195 9.61133 102.22 10.0383 103.049 10.8909C103.877 11.7435 104.292 12.7795 104.292 14.0003C104.292 15.2281 103.879 16.2669 103.054 17.1153ZM97.6922 16.4111C98.3138 17.0411 99.0739 17.3547 99.9741 17.3547C100.874 17.3547 101.636 17.0397 102.256 16.4111C102.878 15.7811 103.19 14.9775 103.19 14.0003C103.19 13.0231 102.878 12.2195 102.256 11.5895C101.636 10.9595 100.874 10.6459 99.9741 10.6459C99.0739 10.6459 98.3138 10.9609 97.6922 11.5895C97.072 12.2195 96.7598 13.0231 96.7598 14.0003C96.7598 14.9775 97.072 15.7811 97.6922 16.4111Z" stroke="white" stroke-width="0.2" stroke-miterlimit="10"/>
<path d="M105.807 18.2003V9.80034H107.12L111.202 16.3341H111.248L111.202 14.7157V9.80034H112.282V18.2003H111.155L106.883 11.3487H106.837L106.883 12.9671V18.2003H105.807Z" stroke="white" stroke-width="0.2" stroke-miterlimit="10"/>
<g filter="url(#filter0_ii_1398_19107)">
<path d="M14.6091 10.5534C14.2017 10.9846 13.9609 11.6538 13.9609 12.5204V43.4828C13.9609 44.3508 14.2017 45.0186 14.6091 45.4498L14.7127 45.5506L32.0573 28.206V28.0016V27.7972L14.7127 10.4512L14.6091 10.5534Z" fill="url(#paint0_linear_1398_19107)"/>
<path d="M37.8392 33.9888L32.0586 28.2054V28.001V27.7966L37.8406 22.0146L37.9708 22.0888L44.821 25.9808C46.7768 27.0924 46.7768 28.911 44.821 30.024L37.9708 33.916L37.8392 33.9888Z" fill="url(#paint1_linear_1398_19107)"/>
<g filter="url(#filter1_i_1398_19107)">
<path d="M37.9698 33.9146L32.0562 28.001L14.6094 45.4492C15.2534 46.1324 16.3188 46.2164 17.5186 45.536L37.9698 33.9146Z" fill="url(#paint2_linear_1398_19107)"/>
</g>
<path d="M37.9698 22.0876L17.5186 10.4676C16.3188 9.78578 15.2534 9.87118 14.6094 10.5544L32.0576 28.0026L37.9698 22.0876Z" fill="url(#paint3_linear_1398_19107)"/>
</g>
<path d="M5 1H184V-1H5V1ZM188 5V51H190V5H188ZM184 55H5V57H184V55ZM1 51V5H-1V51H1ZM5 55C2.79086 55 1 53.2091 1 51H-1C-1 54.3137 1.6863 57 5 57V55ZM188 51C188 53.2091 186.209 55 184 55V57C187.314 57 190 54.3137 190 51H188ZM184 1C186.209 1 188 2.79086 188 5H190C190 1.68629 187.314 -1 184 -1V1ZM5 -1C1.68629 -1 -1 1.68629 -1 5H1C1 2.79086 2.79086 1 5 1V-1Z" fill="#A6A6A6"/>
<defs>
<filter id="filter0_ii_1398_19107" x="13.9609" y="9.99707" width="32.3281" height="36.0088" filterUnits="userSpaceOnUse" color-interpolation-filters="sRGB">
<feFlood flood-opacity="0" result="BackgroundImageFix"/>
<feBlend mode="normal" in="SourceGraphic" in2="BackgroundImageFix" result="shape"/>
<feColorMatrix in="SourceAlpha" type="matrix" values="0 0 0 0 0 0 0 0 0 0 0 0 0 0 0 0 0 0 127 0" result="hardAlpha"/>
<feOffset dy="-0.15"/>
<feComposite in2="hardAlpha" operator="arithmetic" k2="-1" k3="1"/>
<feColorMatrix type="matrix" values="0 0 0 0 0 0 0 0 0 0 0 0 0 0 0 0 0 0 0.12 0"/>
<feBlend mode="normal" in2="shape" result="effect1_innerShadow_1398_19107"/>
<feColorMatrix in="SourceAlpha" type="matrix" values="0 0 0 0 0 0 0 0 0 0 0 0 0 0 0 0 0 0 127 0" result="hardAlpha"/>
<feOffset dy="0.15"/>
<feComposite in2="hardAlpha" operator="arithmetic" k2="-1" k3="1"/>
<feColorMatrix type="matrix" values="0 0 0 0 1 0 0 0 0 1 0 0 0 0 1 0 0 0 0.25 0"/>
<feBlend mode="normal" in2="effect1_innerShadow_1398_19107" result="effect2_innerShadow_1398_19107"/>
</filter>
<filter id="filter1_i_1398_19107" x="14.6094" y="28.001" width="23.3594" height="18.0049" filterUnits="userSpaceOnUse" color-interpolation-filters="sRGB">
<feFlood flood-opacity="0" result="BackgroundImageFix"/>
<feBlend mode="normal" in="SourceGraphic" in2="BackgroundImageFix" result="shape"/>
<feColorMatrix in="SourceAlpha" type="matrix" values="0 0 0 0 0 0 0 0 0 0 0 0 0 0 0 0 0 0 127 0" result="hardAlpha"/>
<feOffset dy="-0.15"/>
<feComposite in2="hardAlpha" operator="arithmetic" k2="-1" k3="1"/>
<feColorMatrix type="matrix" values="0 0 0 0 0 0 0 0 0 0 0 0 0 0 0 0 0 0 0.08 0"/>
<feBlend mode="normal" in2="shape" result="effect1_innerShadow_1398_19107"/>
</filter>
<linearGradient id="paint0_linear_1398_19107" x1="30.5199" y1="12.1928" x2="7.02506" y2="35.6876" gradientUnits="userSpaceOnUse">
<stop stop-color="#00A0FF"/>
<stop offset="0.0066" stop-color="#00A1FF"/>
<stop offset="0.2601" stop-color="#00BEFF"/>
<stop offset="0.5122" stop-color="#00D2FF"/>
<stop offset="0.7604" stop-color="#00DFFF"/>
<stop offset="1" stop-color="#00E3FF"/>
</linearGradient>
<linearGradient id="paint1_linear_1398_19107" x1="47.3669" y1="28.001" x2="13.4926" y2="28.001" gradientUnits="userSpaceOnUse">
<stop stop-color="#FFE000"/>
<stop offset="0.4087" stop-color="#FFBD00"/>
<stop offset="0.7754" stop-color="#FFA500"/>
<stop offset="1" stop-color="#FF9C00"/>
</linearGradient>
<linearGradient id="paint2_linear_1398_19107" x1="34.7583" y1="31.2124" x2="2.89642" y2="63.0743" gradientUnits="userSpaceOnUse">
<stop stop-color="#FF3A44"/>
<stop offset="1" stop-color="#C31162"/>
</linearGradient>
<linearGradient id="paint3_linear_1398_19107" x1="10.2153" y1="0.247296" x2="24.4426" y2="14.4745" gradientUnits="userSpaceOnUse">
<stop stop-color="#32A071"/>
<stop offset="0.0685" stop-color="#2DA771"/>
<stop offset="0.4762" stop-color="#15CF74"/>
<stop offset="0.8009" stop-color="#06E775"/>
<stop offset="1" stop-color="#00F076"/>
</linearGradient>
</defs>
</svg>
