<svg width="26" height="26" viewBox="0 0 26 26" fill="none" xmlns="http://www.w3.org/2000/svg">
<circle cx="13" cy="13" r="13" fill="#C25C5A"/>
<path d="M17.6543 11.0781C17.6491 10.6842 17.5753 10.2943 17.4364 9.92573C17.316 9.61485 17.132 9.33251 16.8962 9.09676C16.6605 8.86101 16.3782 8.67703 16.0673 8.55657C15.7034 8.42 15.3191 8.34615 14.9306 8.33817C14.4303 8.31581 14.2717 8.30957 13.0019 8.30957C11.732 8.30957 11.5693 8.30957 11.0727 8.33817C10.6843 8.34621 10.3001 8.42005 9.93647 8.55657C9.62554 8.67694 9.34316 8.8609 9.1074 9.09666C8.87164 9.33242 8.68769 9.6148 8.56731 9.92573C8.43046 10.2893 8.35678 10.6735 8.34943 11.0619C8.32707 11.5627 8.32031 11.7213 8.32031 12.9911C8.32031 14.261 8.32031 14.4232 8.34943 14.9203C8.35723 15.3093 8.43055 15.693 8.56731 16.0576C8.68789 16.3684 8.87198 16.6507 9.10782 16.8863C9.34366 17.122 9.62607 17.3059 9.93699 17.4262C10.2997 17.5683 10.6839 17.6474 11.0732 17.6602C11.574 17.6826 11.7326 17.6893 13.0024 17.6893C14.2722 17.6893 14.435 17.6893 14.9316 17.6602C15.3201 17.6526 15.7045 17.5789 16.0683 17.4423C16.3791 17.3217 16.6614 17.1377 16.8971 16.902C17.1328 16.6662 17.3169 16.384 17.4375 16.0732C17.5742 15.7092 17.6476 15.3254 17.6554 14.9359C17.6777 14.4357 17.6845 14.2771 17.6845 13.0067C17.6834 11.7369 17.6834 11.5757 17.6543 11.0781ZM12.9988 15.3925C11.6707 15.3925 10.5948 14.3166 10.5948 12.9885C10.5948 11.6604 11.6707 10.5846 12.9988 10.5846C13.6363 10.5846 14.2478 10.8378 14.6986 11.2887C15.1494 11.7395 15.4027 12.351 15.4027 12.9885C15.4027 13.6261 15.1494 14.2376 14.6986 14.6884C14.2478 15.1392 13.6363 15.3925 12.9988 15.3925ZM15.4984 11.0562C15.4248 11.0563 15.3518 11.0418 15.2838 11.0137C15.2158 10.9855 15.1539 10.9442 15.1019 10.8922C15.0498 10.8401 15.0085 10.7783 14.9804 10.7102C14.9522 10.6422 14.9378 10.5693 14.9378 10.4957C14.9378 10.4221 14.9523 10.3492 14.9805 10.2812C15.0086 10.2133 15.0499 10.1515 15.1019 10.0995C15.154 10.0474 15.2157 10.0062 15.2837 9.978C15.3517 9.94984 15.4246 9.93535 15.4981 9.93535C15.5717 9.93535 15.6446 9.94984 15.7125 9.978C15.7805 10.0062 15.8423 10.0474 15.8943 10.0995C15.9464 10.1515 15.9876 10.2133 16.0158 10.2812C16.0439 10.3492 16.0584 10.4221 16.0584 10.4957C16.0584 10.8056 15.8078 11.0562 15.4984 11.0562Z" fill="white"/>
<path d="M12.9991 14.5509C13.8615 14.5509 14.5606 13.8517 14.5606 12.9893C14.5606 12.1269 13.8615 11.4277 12.9991 11.4277C12.1366 11.4277 11.4375 12.1269 11.4375 12.9893C11.4375 13.8517 12.1366 14.5509 12.9991 14.5509Z" fill="white"/>
</svg>
