<svg width="26" height="26" viewBox="0 0 26 26" fill="none" xmlns="http://www.w3.org/2000/svg">
<circle cx="13" cy="13" r="13" fill="#C25C5A"/>
<path d="M9.3526 10.5021C9.98097 10.5021 10.4904 9.99269 10.4904 9.36432C10.4904 8.73595 9.98097 8.22656 9.3526 8.22656C8.72424 8.22656 8.21484 8.73595 8.21484 9.36432C8.21484 9.99269 8.72424 10.5021 9.3526 10.5021Z" fill="white"/>
<path d="M11.5649 11.364V17.6763H13.5248V14.5547C13.5248 13.731 13.6798 12.9334 14.7011 12.9334C15.7083 12.9334 15.7208 13.8751 15.7208 14.6067V17.6768H17.6817V14.2152C17.6817 12.5148 17.3156 11.208 15.3282 11.208C14.374 11.208 13.7344 11.7316 13.4728 12.2272H13.4463V11.364H11.5649ZM8.37109 11.364H10.3341V17.6763H8.37109V11.364Z" fill="white"/>
</svg>
