<svg width="243" height="65" viewBox="0 0 243 65" fill="none" xmlns="http://www.w3.org/2000/svg">
<path fill-rule="evenodd" clip-rule="evenodd" d="M5.41667 0C3.98008 0 2.60233 0.570683 1.58651 1.58651C0.570683 2.60233 0 3.98008 0 5.41667V59.5833C0 61.0199 0.570683 62.3977 1.58651 63.4135C2.60233 64.4293 3.98008 65 5.41667 65H59.5833C61.0199 65 62.3977 64.4293 63.4135 63.4135C64.4293 62.3977 65 61.0199 65 59.5833V5.41667C65 3.98008 64.4293 2.60233 63.4135 1.58651C62.3977 0.570683 61.0199 0 59.5833 0H5.41667ZM46.9444 18.0556H41.5278V46.9444H46.9444V18.0556ZM50.5556 23.4722H55.9722V30.6944H57.7778V34.3056H55.9722V41.5278H50.5556V23.4722ZM18.0556 46.9444H23.4722V18.0556H18.0556V46.9444ZM14.4444 41.5278H9.02778V34.3056H7.22222V30.6944H9.02778V23.4722H14.4444V41.5278ZM27.0833 34.3056H37.9167V30.6944H27.0833V34.3056Z" fill="#F27370"/>
<path d="M90.1016 23.4258L82.3672 47H76.1367L86.7031 18.5625H90.668L90.1016 23.4258ZM96.5273 47L88.7734 23.4258L88.1484 18.5625H92.1523L102.777 47H96.5273ZM96.1758 36.4141V41.0039H81.1562V36.4141H96.1758ZM116.156 32.5859V37H105.121V32.5859H116.156ZM132.758 23.4258L125.023 47H118.793L129.359 18.5625H133.324L132.758 23.4258ZM139.184 47L131.43 23.4258L130.805 18.5625H134.809L145.434 47H139.184ZM138.832 36.4141V41.0039H123.812V36.4141H138.832ZM180.57 32.1367V43.4062C180.128 43.9401 179.444 44.5195 178.52 45.1445C177.595 45.7565 176.404 46.2839 174.945 46.7266C173.487 47.1693 171.723 47.3906 169.652 47.3906C167.816 47.3906 166.143 47.0911 164.633 46.4922C163.122 45.8802 161.82 44.9883 160.727 43.8164C159.646 42.6445 158.812 41.2122 158.227 39.5195C157.641 37.8138 157.348 35.8672 157.348 33.6797V31.9023C157.348 29.7148 157.628 27.7682 158.188 26.0625C158.76 24.3568 159.574 22.918 160.629 21.7461C161.684 20.5742 162.94 19.6823 164.398 19.0703C165.857 18.4583 167.478 18.1523 169.262 18.1523C171.736 18.1523 173.767 18.556 175.355 19.3633C176.944 20.1576 178.155 21.2643 178.988 22.6836C179.835 24.0898 180.355 25.7044 180.551 27.5273H174.867C174.724 26.5638 174.451 25.724 174.047 25.0078C173.643 24.2917 173.064 23.7318 172.309 23.3281C171.566 22.9245 170.603 22.7227 169.418 22.7227C168.441 22.7227 167.569 22.9245 166.801 23.3281C166.046 23.7188 165.408 24.2982 164.887 25.0664C164.366 25.8346 163.969 26.7852 163.695 27.918C163.422 29.0508 163.285 30.3659 163.285 31.8633V33.6797C163.285 35.1641 163.428 36.4792 163.715 37.625C164.001 38.7578 164.424 39.7148 164.984 40.4961C165.557 41.2643 166.26 41.8438 167.094 42.2344C167.927 42.625 168.897 42.8203 170.004 42.8203C170.928 42.8203 171.697 42.7422 172.309 42.5859C172.934 42.4297 173.435 42.2409 173.812 42.0195C174.203 41.7852 174.503 41.5638 174.711 41.3555V36.3164H169.359V32.1367H180.57ZM189.203 18.5625L195.141 31.5312L201.078 18.5625H207.465L198.109 36.6484V47H192.172V36.6484L182.797 18.5625H189.203ZM212.738 18.5625H217.699L225.004 39.4414L232.309 18.5625H237.27L226.996 47H223.012L212.738 18.5625ZM210.062 18.5625H215.004L215.902 38.9141V47H210.062V18.5625ZM235.004 18.5625H239.965V47H234.105V38.9141L235.004 18.5625Z" fill="#F27370"/>
</svg>
