<svg width="64" height="64" viewBox="0 0 64 64" fill="none" xmlns="http://www.w3.org/2000/svg">
<circle cx="32" cy="32" r="32" fill="#FBD4D3"/>
<path d="M39.4317 38.24L32.9613 34.4V25.7024C32.9613 24.9344 32.3469 24.32 31.5789 24.32H31.4637C30.6957 24.32 30.0813 24.9344 30.0813 25.7024V34.7648C30.0813 35.4368 30.4269 36.0704 31.0221 36.416L38.0301 40.6208C38.6829 41.0048 39.5277 40.8128 39.9117 40.16C40.3149 39.488 40.1037 38.624 39.4317 38.24ZM49.6269 18.5792L43.7133 13.664C42.9069 12.992 41.6973 13.088 41.0061 13.9136C40.3341 14.72 40.4493 15.9296 41.2557 16.6208L47.1501 21.536C47.9565 22.208 49.1661 22.112 49.8573 21.2864C50.5485 20.48 50.4333 19.2704 49.6269 18.5792ZM16.8333 21.536L22.7277 16.6208C23.5533 15.9296 23.6685 14.72 22.9773 13.9136C22.3053 13.088 21.0957 12.992 20.2893 13.664L14.3757 18.5792C13.5693 19.2704 13.4541 20.48 14.1453 21.2864C14.8173 22.112 16.0269 22.208 16.8333 21.536ZM32.0013 16.64C22.4589 16.64 14.7213 24.3776 14.7213 33.92C14.7213 43.4624 22.4589 51.2 32.0013 51.2C41.5437 51.2 49.2813 43.4624 49.2813 33.92C49.2813 24.3776 41.5437 16.64 32.0013 16.64ZM32.0013 47.36C24.5901 47.36 18.5613 41.3312 18.5613 33.92C18.5613 26.5088 24.5901 20.48 32.0013 20.48C39.4125 20.48 45.4413 26.5088 45.4413 33.92C45.4413 41.3312 39.4125 47.36 32.0013 47.36Z" fill="#F27370"/>
</svg>
