<svg width="70" height="56" viewBox="0 0 70 56" fill="none" xmlns="http://www.w3.org/2000/svg">
<path d="M56 17.5C60.8322 17.5 64.75 13.5822 64.75 8.75C64.75 3.91781 60.8344 0 56 0C51.1678 0 47.25 3.91781 47.25 8.75C47.25 13.5822 51.1656 17.5 56 17.5ZM14 17.5C18.8322 17.5 22.75 13.5822 22.75 8.75C22.75 3.91781 18.8344 0 14 0C9.16781 0 5.25 3.91781 5.25 8.75C5.25 13.5822 9.16781 17.5 14 17.5ZM34.9891 35C41.2683 35 46.2656 29.9075 46.2656 23.625C46.2656 17.3425 41.1753 12.25 34.9891 12.25C28.7098 12.25 23.7125 17.3425 23.7125 23.625C23.6141 29.9031 28.7109 35 34.9891 35ZM40.25 43.75C40.25 41.9245 40.6217 40.1997 41.1927 38.57C40.9391 38.5547 40.7094 38.5 40.4578 38.5H29.5422C20.9563 38.5 14 45.0297 14 53.0797C14 54.6984 15.3891 56 17.1062 56H46.2109C42.6016 53.1125 40.25 48.7266 40.25 43.75ZM20.1141 23.625C20.1141 23.029 20.2215 22.4623 20.29 21.8848C19.0969 21.2297 17.7844 21 16.3953 21H9.63375C4.31375 21 0 25.5719 0 31.2047C0 32.3312 0.862641 33.25 1.92719 33.25H23.7475C21.5141 30.6469 20.1141 27.3109 20.1141 23.625ZM60.3641 21H53.6003C52.2003 21 50.8791 21.3322 49.6781 21.9013C49.7438 22.4766 49.8531 23.0344 49.8531 23.625C49.8531 25.9733 49.2379 28.1509 48.2508 30.1153C50.5531 28.8094 53.1672 28 56 28C60.6463 28 64.7795 30.0497 67.6594 33.25H68.0702C69.1359 33.25 70 32.3312 70 31.2047C70 25.5719 65.6906 21 60.3641 21ZM67.6047 40.1078C67.0551 38.3567 66.1183 36.7587 64.8977 35.4364C64.807 35.3364 64.6846 35.2706 64.5512 35.2502C64.4177 35.2298 64.2813 35.2561 64.165 35.3245L62.0682 36.5353C61.1827 35.782 60.1651 35.1922 59.0659 34.805V32.2766C59.0659 32.0016 58.8623 31.7575 58.5977 31.7064C56.7864 31.2992 54.9336 31.3095 53.2033 31.7064C53.0359 31.85 52.8391 32.1016 52.8391 32.2766V34.7091C51.7398 35.0959 50.7216 35.686 49.8367 36.4394L47.7302 35.2286C47.4962 35.0861 47.1907 35.1369 46.9977 35.3405C45.776 36.6639 44.8397 38.2619 44.3005 40.0119C44.2191 40.2866 44.3311 40.5716 44.5652 40.7038L46.6619 41.9255C46.4586 43.0701 46.4586 44.2416 46.6619 45.3861L44.5652 46.6079C44.3208 46.7401 44.2191 47.0252 44.3005 47.3C44.8399 49.0511 45.776 50.6381 46.9977 51.9714C47.1908 52.1752 47.4863 52.226 47.7302 52.0835L49.8367 50.8727C50.722 51.626 51.7398 52.2158 52.8391 52.603V55.0355C52.8391 55.3105 53.0327 55.5546 53.2971 55.6055C55.1193 56.0127 56.9612 56.0024 58.6915 55.6055C58.9562 55.5546 59.1597 55.3105 59.1597 55.0355V52.603C60.2589 52.2164 61.2772 51.6261 62.1621 50.8727L64.2588 52.0835C64.493 52.226 64.8084 52.1752 64.9915 51.9714C66.2132 50.648 67.1495 49.0511 67.6985 47.3C67.7799 47.0252 67.6682 46.7401 67.4238 46.6079L65.3271 45.3861C65.5407 44.2425 65.5407 43.0692 65.3271 41.9255L67.4238 40.7038C67.6703 40.6656 67.7797 40.3813 67.6047 40.1078ZM56 47.25C54.0673 47.25 52.5 45.6827 52.5 43.75C52.5 41.8173 54.0673 40.25 56 40.25C57.9327 40.25 59.5 41.8173 59.5 43.75C59.5 45.6859 57.9359 47.25 56 47.25Z" fill="#FAFAFA"/>
</svg>
