<svg width="76" height="76" viewBox="0 0 76 76" fill="none" xmlns="http://www.w3.org/2000/svg">
<path d="M63.8559 31.3402L53.0996 15.9809L58.2215 12.3965L68.9746 27.7559L63.8559 31.3402ZM57.9684 39.2777L52.5934 31.5934L26.9934 49.5184L32.3684 57.1965L27.2496 60.784L12.9121 40.3027L18.0309 36.7184L23.4059 44.3996L49.0059 26.4746L43.6309 18.7934L48.7496 15.209L63.0871 35.6871L57.9684 39.2746V39.2777ZM65.3902 22.634L70.509 19.0496L66.9246 13.9309L61.8059 17.5152L65.3902 22.634ZM22.8996 60.0184L12.1434 44.659L7.02461 48.2434L17.7777 63.6027L22.8996 60.0184ZM14.1934 58.484L9.07461 62.0684L5.49023 56.9496L10.609 53.3652L14.1934 58.484Z" fill="#FAFAFA"/>
</svg>
