<svg width="64" height="64" viewBox="0 0 64 64" fill="none" xmlns="http://www.w3.org/2000/svg">
<circle cx="32" cy="32" r="32" fill="#FBD4D3"/>
<path d="M48.4245 37.4813L51.1654 34.7405L48.4245 31.9997L41.582 38.8422L25.1562 22.4163L31.9987 15.5738L29.2579 12.833L26.517 15.5738L23.7762 12.833L19.6745 16.9347L16.9337 14.1938L14.1929 16.9347L16.9337 19.6755L12.832 23.7772L15.5729 26.518L12.832 29.2588L15.5729 31.9997L22.4154 25.1572L38.8412 41.583L31.9987 48.4255L34.7395 51.1663L37.4804 48.4255L40.2212 51.1663L44.3229 47.0647L47.0637 49.8055L49.8045 47.0647L47.0637 44.3238L51.1654 40.2222L48.4245 37.4813Z" fill="#F27370"/>
</svg>
