<svg width="26" height="26" viewBox="0 0 26 26" fill="none" xmlns="http://www.w3.org/2000/svg">
<circle cx="13" cy="13" r="13" fill="#C25C5A"/>
<g clip-path="url(#clip0_1398_19508)">
<path d="M19.0532 9.32703C18.619 9.51943 18.1526 9.64943 17.6622 9.70819C18.1682 9.40544 18.5467 8.92895 18.7272 8.36763C18.2518 8.64998 17.7316 8.84873 17.189 8.95523C16.8242 8.56568 16.3409 8.30748 15.8143 8.22071C15.2877 8.13395 14.7471 8.22348 14.2766 8.4754C13.8061 8.72732 13.4319 9.12753 13.2121 9.61391C12.9924 10.1003 12.9393 10.6456 13.0613 11.1652C12.0981 11.1169 11.1558 10.8665 10.2956 10.4304C9.43541 9.99432 8.67653 9.38223 8.06821 8.63387C7.86021 8.99267 7.74061 9.40867 7.74061 9.85171C7.74038 10.2505 7.8386 10.6433 8.02655 10.995C8.2145 11.3468 8.48638 11.6468 8.81805 11.8683C8.4334 11.856 8.05723 11.7521 7.72085 11.5651V11.5963C7.72081 12.1557 7.91431 12.6979 8.26851 13.1308C8.62271 13.5638 9.11579 13.8609 9.66409 13.9717C9.30726 14.0682 8.93315 14.0825 8.57001 14.0133C8.72471 14.4946 9.02605 14.9155 9.43184 15.217C9.83764 15.5186 10.3276 15.6857 10.8331 15.6949C9.97497 16.3686 8.91524 16.734 7.82433 16.7323C7.63109 16.7324 7.43801 16.7211 7.24609 16.6985C8.35342 17.4105 9.64243 17.7884 10.9589 17.7869C15.4153 17.7869 17.8515 14.0959 17.8515 10.8948C17.8515 10.7908 17.8489 10.6858 17.8442 10.5818C18.3181 10.2391 18.7271 9.81473 19.0522 9.32859L19.0532 9.32703Z" fill="white"/>
</g>
<defs>
<clipPath id="clip0_1398_19508">
<rect width="12.48" height="12.48" fill="white" transform="translate(6.75781 6.75977)"/>
</clipPath>
</defs>
</svg>
