<svg width="10" height="11" viewBox="0 0 10 11" fill="none" xmlns="http://www.w3.org/2000/svg">
<path d="M5 0.5C3.67915 0.516845 2.41715 1.04904 1.48309 1.98309C0.549037 2.91715 0.0168446 4.17915 0 5.5C0.00617444 6.26946 0.18986 7.02711 0.536756 7.71396C0.883651 8.40081 1.3844 8.99833 2 9.46V9.5H2.05C2.89659 10.1487 3.93342 10.5003 5 10.5003C6.06658 10.5003 7.10341 10.1487 7.95 9.5H8V9.46C8.6156 8.99833 9.11635 8.40081 9.46324 7.71396C9.81014 7.02711 9.99383 6.26946 10 5.5C9.98316 4.17915 9.45096 2.91715 8.51691 1.98309C7.58285 1.04904 6.32085 0.516845 5 0.5ZM3.035 8.965C3.10799 8.63072 3.29308 8.33144 3.55954 8.11681C3.82601 7.90219 4.15785 7.78511 4.5 7.785H5.5C5.84215 7.78511 6.17399 7.90219 6.44046 8.11681C6.70692 8.33144 6.89201 8.63072 6.965 8.965C6.36943 9.3154 5.691 9.50018 5 9.50018C4.309 9.50018 3.63057 9.3154 3.035 8.965ZM7.805 8.32C7.61481 7.86547 7.29456 7.47728 6.88446 7.20418C6.47436 6.93108 5.99271 6.78525 5.5 6.785H4.5C4.00729 6.78525 3.52564 6.93108 3.11554 7.20418C2.70544 7.47728 2.38519 7.86547 2.195 8.32C1.82033 7.95149 1.52195 7.51277 1.31691 7.0289C1.11186 6.54503 1.00418 6.0255 1 5.5C1.01297 4.44316 1.43856 3.43327 2.18591 2.68591C2.93327 1.93856 3.94316 1.51297 5 1.5C6.05684 1.51297 7.06673 1.93856 7.81409 2.68591C8.56144 3.43327 8.98703 4.44316 9 5.5C8.99582 6.0255 8.88814 6.54503 8.68309 7.0289C8.47805 7.51277 8.17967 7.95149 7.805 8.32Z" fill="#707070"/>
</svg>
